<svg width="128" height="128"  t="1588695169933" class="icon" viewBox="0 0 1094 1024" version="1.1" xmlns="http://www.w3.org/2000/svg" p-id="7597" width="48" height="48"><path d="M1056.090877 1024H38.264162A38.264162 38.264162 0 0 1 1.81117 974.129042L139.026456 542.662349a38.264162 38.264162 0 0 1 36.299935-26.657367l251.803697-1.045887 0.306113 76.528325-223.947386 0.91834-112.904788 355.065916H1004.8169l-106.221314-357.922974-222.595387 0.790793-0.306113-76.528325 251.165961-1.045887h0.153056a38.264162 38.264162 0 0 1 36.682577 27.371631l128.950227 434.578845A38.264162 38.264162 0 0 1 1056.090877 1024z" fill="" p-id="7598"></path><path d="M364.785013 968.210851l-50.559713-6.913058 25.177819-183.948583-227.034029 0.433661v-51.018883l256.21683-0.48468a25.509441 25.509441 0 0 1 25.279856 28.978726zM561.207713 984.536894l-51.018883-0.841812 2.321359-140.557022a25.509441 25.509441 0 0 1 25.509441-25.075781l447.716208-0.484679v51.018882l-422.665936 0.45917zM710.616511 737.809576a25.509441 25.509441 0 0 1 0-51.018883l264.150267-0.612227a25.509441 25.509441 0 0 1 0 51.018883l-264.150267 0.612227zM545.902048 748.498032a38.264162 38.264162 0 0 1-28.723631-12.984306c-2.550944-2.959095-64.564396-73.51821-127.547208-162.393104C300.832843 447.690698 257.645359 354.504708 257.645359 288.256689a288.256689 288.256689 0 0 1 576.513377 0c0 66.324548-43.187484 159.434009-132.036869 284.889442-62.931792 88.874894-124.996263 159.434009-127.547207 162.393105a38.264162 38.264162 0 0 1-28.672612 12.958796zM545.902048 76.528324a211.957949 211.957949 0 0 0-211.728365 211.728365c0 27.626725 15.305665 95.558368 117.573016 240.120372 35.049973 49.513826 70.406058 93.849235 94.155349 122.598376 23.723781-28.749141 59.105376-73.110059 94.155348-122.598376C742.324747 383.713019 757.630412 315.883414 757.630412 288.256689a211.957949 211.957949 0 0 0-211.728364-211.728365z" fill="" p-id="7599"></path><path d="M545.902048 383.713019a108.848787 108.848787 0 1 1 108.848787-108.848787A108.950825 108.950825 0 0 1 545.902048 383.713019z m0-166.653181a57.829904 57.829904 0 1 0 57.829904 57.829903A57.880923 57.880923 0 0 0 545.902048 216.93229z" fill="" p-id="7600"></path></svg>