<?xml version="1.0" standalone="no"?>
<!DOCTYPE svg PUBLIC "-//W3C//DTD SVG 1.1//EN" "http://www.w3.org/Graphics/SVG/1.1/DTD/svg11.dtd" >
<!--
2013-9-30: Created.
-->
<svg>
<metadata>
Created by iconfont
</metadata>
<defs>

<font id="iconfont" horiz-adv-x="1024" >
  <font-face
    font-family="iconfont"
    font-weight="500"
    font-stretch="normal"
    units-per-em="1024"
    ascent="896"
    descent="-128"
  />
    <missing-glyph />
    
    <glyph glyph-name="xiaohaopinshenhe" unicode="&#59312;" d="M654.3 122.29h33.15a97.85 97.85 0 0 0 6.1 156.36c27.08 18.86 61 22.86 93.18 11 3-1.11 5.9-2.38 8.74-3.77V664.66a25.07 25.07 0 0 1-25 25H625.1l2.41-9.79a23.12 23.12 0 0 0-16.9-28 23.12 23.12 0 0 0-28 16.91l-5.15 20.86H362.78l-9.11-22.32a23.11 23.11 0 0 0-30.13-12.67 23.11 23.11 0 0 0-12.67 30.13l2 4.86H172.05a25.07 25.07 0 0 1-25-25v-599.52a12 12 0 0 1 12-12h438.47v12.56a56.76 56.76 0 0 0 56.78 56.61zM389.23 311.83a23.13 23.13 0 0 0-23.12-23.13h-96.65a23.14 23.14 0 0 0-23.13 23.13 23.13 23.13 0 0 0 23.13 23.12h96.65a23.12 23.12 0 0 0 23.12-23.12zM441 430.19c0-13.18-14.21-23.86-31.75-23.86H276.58c-17.53 0-31.75 10.68-31.75 23.86s14.22 23.87 31.75 23.87h132.68c17.54 0 31.75-10.69 31.75-23.87z m24.75 107.12a25 25 0 0 0-24.95-24.95H264.65a25 25 0 0 0-24.95 24.95 25 25 0 0 0 24.95 24.95h176.16a25 25 0 0 0 24.95-24.95zM376.12 722.37a23.11 23.11 0 0 0 21.55 14.38l150.47-1a23.11 23.11 0 0 0 22.3-17.57l7-28.56h47.66l-18.4 74.55a23.12 23.12 0 0 1-22.29 17.58l-217.73 1.39a23.12 23.12 0 0 1-21.55-14.39l-32.28-79.13h49.93zM582.63 668.8a23.12 23.12 0 0 1 28-16.91 23.12 23.12 0 0 1 16.9 28l-2.41 9.79h-47.64zM323.54 654.67a23.11 23.11 0 0 1 30.13 12.67l9.11 22.32h-49.93l-2-4.86a23.11 23.11 0 0 1 12.69-30.13zM845.73 97.29H794.9c-8.46 0-17.08 10.06-17.08 20.28 0 8.2 2.72 13.74 9.85 17.87 24.31 13.53 36 35.93 36 62.62 0 30.11-17.24 57.62-45.61 68.11-52.4 19.39-101.68-18.63-101.68-68.09a72.61 72.61 0 0 1 36.25-62.77c7.24-4.39 9.59-9.59 9.59-17.74 0-10.22-9.08-20.28-17.07-20.28H654.3a31.69 31.69 0 0 1-31.78-31.61v-32h255v32a31.7 31.7 0 0 1-31.79 31.61z m-223.21-81h255v-32.87h-255z m0 0"  horiz-adv-x="1024" />

    
    <glyph glyph-name="xiaohaopinguanli" unicode="&#59313;" d="M862.61 155.81h-24.48c-2.58 5.15-6.44 15.46-10.31 23.19l16.75 20.61a14 14 0 0 1 0 19.31L824 238.25c-6.44 5.15-15.46 5.15-20.61 0l-16.75-18c-7.72 5.15-18 7.73-23.18 10.3V255a14.21 14.21 0 0 1-14.17 14.17h-30.96c-9 0-16.74-6.44-16.74-14.17v-24.48c-5.15-2.57-15.46-6.43-23.19-10.3l-16.75 18a14 14 0 0 1-19.32 0L623 217.63c-5.15-6.43-5.15-15.45 0-20.61l18-16.74c-5.16-7.73-7.73-18-10.31-23.19h-24.43a14.2 14.2 0 0 1-14.16-14.17V112c0-9 6.43-16.75 14.16-16.75h24.48c2.58-5.15 6.44-15.46 10.31-23.19l-18-16.74A14 14 0 0 1 623 36l20.61-20.61c6.44-5.15 15.46-5.15 20.61 0l16.75 18c7.73-5.16 18-7.73 23.18-10.31v-24.47a14.21 14.21 0 0 1 14.17-14.17h30.92c9 0 16.75 6.44 16.75 14.17v21.94c5.15 2.58 15.45 6.45 23.18 10.31l16.75-18a14 14 0 0 1 19.32 0l20.61 20.61c5.15 6.44 5.15 15.46 0 20.61l-18 16.75c5.16 7.73 7.73 18 10.31 23.19h24.48a14.2 14.2 0 0 1 14.16 14.17v30.87c0 9-6.43 16.75-14.16 16.75z m-127.53-94c-34.78 0-64.41 28.34-64.41 64.4s29.63 64.41 64.41 64.41c36.07 0 64.4-29.63 64.4-64.41 0-36.07-29.62-64.4-64.4-64.4z m0 0M769.31 690H170.89a25.07 25.07 0 0 1-25-25v-599.55a12 12 0 0 1 12-12h433.49a38.81 38.81 0 0 0 8.07 17c-20.07 1.77-35.9 19.75-35.9 41.6v30.87a39.33 39.33 0 0 0 35.87 39c-11.92 14.35-11.89 35.79 0.54 51.31l0.61 0.76 21 22.33a39 39 0 0 0 51.63 1.91c1.78 20.08 19.76 35.9 41.6 35.9h30.92a39.32 39.32 0 0 0 39-35.86 38.25 38.25 0 0 0 9.58 5.8V665a25.07 25.07 0 0 1-24.99 25zM388.08 312.16A23.13 23.13 0 0 0 365 289h-96.7a23.12 23.12 0 0 0-23.12 23.12 23.12 23.12 0 0 0 23.12 23.12H365a23.13 23.13 0 0 0 23.13-23.12z m51.77 118.36c0-13.18-14.21-23.86-31.74-23.86H275.43c-17.54 0-31.75 10.68-31.75 23.86 0 13.19 14.21 23.87 31.75 23.87h132.68c17.53 0 31.74-10.68 31.74-23.87z m24.76 107.12a25 25 0 0 0-25-24.95H263.5a25 25 0 0 0-24.95 24.95 25 25 0 0 0 24.95 24.95h176.15a25 25 0 0 0 25-24.95zM322.39 655a23.12 23.12 0 0 0-12.68 30.13l34.27 84a23.11 23.11 0 0 0 21.55 14.38l217.72-1.39a23.11 23.11 0 0 0 22.3-17.57l20.81-84.35a23.1 23.1 0 0 0-16.91-28 23.1 23.1 0 0 0-28 16.9l-12.2 49.42a23.1 23.1 0 0 1-22.25 17.6l-150.48 1A23.12 23.12 0 0 1 375 722.7l-22.44-55a23.11 23.11 0 0 0-30.17-12.7z"  horiz-adv-x="1024" />

    
    <glyph glyph-name="zixieshilajichebaojing" unicode="&#59290;" d="M352.712 317.411c0 1.39 5.784 2.535 13.076 2.535h473.754c7.125 0 13.076-1.128 13.076-2.535v-100.452c0-1.4-5.867-2.532-13.076-2.532H365.704a51.459 51.459 0 0 0-9.221 0.736c-2.43 0.474-3.855 1.128-3.855 1.8V317.411zM98.438 389.057v-168.223a10.767 10.767 0 0 1 10.857-10.787h237.753a10.752 10.752 0 0 1 10.79 10.787v319.6a10.812 10.812 0 0 1-10.788 10.857H154.122zM278.846 380.485V509.803a8.75 8.75 0 0 1-2.576 6.195 8.63 8.63 0 0 1-6.195 2.574H168.113l-44.894-131.268v-6.819zM772.573 214.585a69.581 69.581 0 0 1-69.6 69.6 69.52 69.52 0 0 1-69.53-69.6 69.707 69.707 0 0 1 34.8-60.274 69.356 69.356 0 0 1 69.53 0 69.712 69.712 0 0 1 34.8 60.274zM702.973 130.782a83.93 83.93 0 0 0-83.8 83.8 83.93 83.93 0 0 0 83.8 83.8 83.883 83.883 0 0 0 83.8-83.8 83.928 83.928 0 0 0-83.8-83.8z m0 138.993a55.218 55.218 0 0 1-51.016-34.106 55.21 55.21 0 0 1 11.969-60.2 55.237 55.237 0 0 1 60.2-11.971 55.276 55.276 0 0 1 34.1 51.086 55.293 55.293 0 0 1-55.253 55.198zM297.639 214.586a69.712 69.712 0 0 1-34.8 60.275 69.479 69.479 0 0 1-69.6 0 69.712 69.712 0 0 1-34.8-60.275 69.712 69.712 0 0 1 34.798-60.274 69.49 69.49 0 0 1 69.6 0 69.565 69.565 0 0 1 34.802 60.274zM228.106 130.782a83.928 83.928 0 0 0-83.8 83.8 83.883 83.883 0 0 0 83.8 83.8 83.884 83.884 0 0 0 83.8-83.8 83.973 83.973 0 0 0-83.8-83.8z m0 138.993a55.264 55.264 0 0 1-55.264-55.259 55.262 55.262 0 0 1 55.261-55.261 55.263 55.263 0 0 1 55.264 55.261 55.265 55.265 0 0 1-55.261 55.266zM677.048 638.788h-68.976l11.761-40.957-262.579-2.076v-276.319l463.589-0.069-10.2 22.9-119 277.841zM877.989 522.417l-147.637 86.549-33.88-0.126 124.373-289.474h24.56l78.04 56.384v33.416z"  horiz-adv-x="1024" />

    
    <glyph glyph-name="guanliyongchebaojing" unicode="&#59291;" d="M395.535 566l311.547-6.467 51.746-111.046 142.3-25.873 12.936-143.388h-804.2l25.871 149.855 168.163 25.875zM108.781 319.419h111.035l-12.935-38.812H104.469A6.955 6.955 0 0 0 98 287.074v1.078l4.312 25.875c1.078 3.235 3.235 5.392 6.469 5.392zM927 312.95l-103.49 6.469 12.938-39.89h90.554zM213.357 279.619a77.623 77.623 0 0 1 77.623-77.623 77.623 77.623 0 0 1 77.623 77.623 77.623 77.623 0 0 1-77.623 77.623 77.623 77.623 0 0 1-77.623-77.623zM382.602 279.518a6.955 6.955 0 0 0-6.469-6.469 6.956 6.956 0 0 0-6.467 6.469 77.3 77.3 0 0 1-77.615 77.623 77.3 77.3 0 0 1-77.618-77.623 6.955 6.955 0 0 0-6.466-6.469 6.957 6.957 0 0 0-6.469 6.469 90.406 90.406 0 0 0 90.553 90.56 90.405 90.405 0 0 0 90.551-90.56z m453.838 0a6.957 6.957 0 0 0-6.469-6.469 6.958 6.958 0 0 0-6.469 6.469 77.3 77.3 0 0 1-77.616 77.623 77.3 77.3 0 0 1-77.615-77.623 6.955 6.955 0 0 0-6.469-6.469 6.957 6.957 0 0 0-6.467 6.469 90.4 90.4 0 0 0 90.551 90.56 90.406 90.406 0 0 0 90.554-90.56zM252.157 279.623a38.811 38.811 0 0 1 38.812-38.812 38.811 38.811 0 0 1 38.812 38.812 38.811 38.811 0 0 1-38.812 38.812 38.811 38.811 0 0 1-38.812-38.812zM668.254 279.619a77.623 77.623 0 0 1 77.623-77.623 77.623 77.623 0 0 1 77.623 77.623 77.623 77.623 0 0 1-77.623 77.623 77.623 77.623 0 0 1-77.623-77.623zM707.077 279.623a38.812 38.812 0 0 1 38.782-38.841 38.81 38.81 0 0 1 38.841 38.782v0.059a38.812 38.812 0 0 1-38.782 38.841 38.813 38.813 0 0 1-38.841-38.782zM408.46 533.658l-71.156-91.638H550.77l-6.469 91.638z m168.185 0h103.5l39.888-91.638H583.112z"  horiz-adv-x="1024" />

    
    <glyph glyph-name="lajitongzhuangyunshuchebaojing" unicode="&#59292;" d="M377.877 357.93c0 1.524 6.352 2.781 14.36 2.781h520.268c7.825 0 14.36-1.239 14.36-2.781v-110.314c0-1.545-6.443-2.783-14.36-2.783h-520.36a56.527 56.527 0 0 0-10.126 0.808c-2.669 0.52-4.234 1.239-4.234 1.975v110.314zM97.999 436.832v-184.739a11.825 11.825 0 0 1 11.923-11.847h261.1a11.808 11.808 0 0 1 11.847 11.847v350.981a11.873 11.873 0 0 1-11.847 11.923h-211.877zM296.114 427.586v142.014a9.609 9.609 0 0 1-2.829 6.8 9.478 9.478 0 0 1-6.8 2.827h-111.977l-49.3-144.152v-7.491zM838.832 244.831a76.412 76.412 0 0 1-76.433 76.433 76.345 76.345 0 0 1-76.367-76.433 76.543 76.543 0 0 1 38.217-66.19 76.153 76.153 0 0 1 76.357 0 76.552 76.552 0 0 1 38.226 66.19zM762.394 152.807a92.168 92.168 0 0 0-92.027 92.024 92.17 92.17 0 0 0 92.027 92.027 92.121 92.121 0 0 0 92.027-92.027 92.168 92.168 0 0 0-92.027-92.024z m0 152.637a60.642 60.642 0 0 1-56.025-37.452 60.631 60.631 0 0 1 13.147-66.116 60.66 60.66 0 0 1 66.113-13.147 60.706 60.706 0 0 1 37.452 56.1 60.722 60.722 0 0 1-60.687 60.615zM316.752 244.832a76.556 76.556 0 0 1-38.217 66.192 76.3 76.3 0 0 1-76.436 0 76.556 76.556 0 0 1-38.217-66.192 76.549 76.549 0 0 1 38.217-66.19 76.3 76.3 0 0 1 76.436 0 76.391 76.391 0 0 1 38.217 66.19zM240.395 152.807a92.166 92.166 0 0 0-92.027 92.024 92.119 92.119 0 0 0 92.027 92.027 92.119 92.119 0 0 0 92.024-92.027 92.215 92.215 0 0 0-92.024-92.024z m0 152.637a60.691 60.691 0 0 1-60.69-60.686 60.689 60.689 0 0 1 60.689-60.687 60.688 60.688 0 0 1 60.688 60.687 60.69 60.69 0 0 1-60.687 60.686zM382.867 510.729m2.372 0l539.255 0q2.372 0 2.372-2.372l0-148.057q0-2.372-2.372-2.372l-539.255 0q-2.372 0-2.372 2.372l0 148.057q0 2.372 2.372 2.372ZM885.463 595.683m2.372 0l36.659 0q2.372 0 2.372-2.372l0-233.011q0-2.372-2.372-2.372l-36.659 0q-2.372 0-2.372 2.372l0 233.011q0 2.372 2.372 2.372Z"  horiz-adv-x="1024" />

    
    <glyph glyph-name="gaoyaqingxichebaojing" unicode="&#59293;" d="M372.325 357.15c0 1.5 6.235 2.73 14.1 2.73H897.18c7.682 0 14.1-1.216 14.1-2.73v-108.3c0-1.516-6.325-2.732-14.1-2.732H386.335a55.475 55.475 0 0 0-9.941 0.793c-2.62 0.51-4.156 1.216-4.156 1.939v108.3zM507.833 612h291.8A126.371 126.371 0 0 0 926 485.632a126.371 126.371 0 0 0-126.371-126.371h-291.8a126.369 126.369 0 0 0-126.368 126.371A126.368 126.368 0 0 0 507.833 612zM98 433.991v-181.362a11.609 11.609 0 0 1 11.706-11.63h256.322a11.594 11.594 0 0 1 11.633 11.63V597.194a11.66 11.66 0 0 1-11.633 11.708h-208zM292.493 424.913V564.331a9.433 9.433 0 0 1-2.777 6.678 9.3 9.3 0 0 1-6.676 2.775H173.113l-48.4-141.517v-7.354zM824.847 246.341a75.015 75.015 0 0 1-75.033 75.035 74.95 74.95 0 0 1-74.961-75.036 75.149 75.149 0 0 1 37.518-64.979 74.76 74.76 0 0 1 74.96 0 75.148 75.148 0 0 1 37.516 64.98zM749.811 156a90.483 90.483 0 0 0-90.344 90.342 90.485 90.485 0 0 0 90.344 90.344 90.437 90.437 0 0 0 90.344-90.344A90.483 90.483 0 0 0 749.811 156z m0 149.847a59.533 59.533 0 0 1-55-36.767 59.522 59.522 0 0 1 12.906-64.907 59.55 59.55 0 0 1 64.9-12.906 59.6 59.6 0 0 1 36.77 55.076 59.613 59.613 0 0 1-59.576 59.503zM312.753 246.341a75.156 75.156 0 0 1-37.518 64.982 74.9 74.9 0 0 1-75.036 0 75.152 75.152 0 0 1-37.518-64.982 75.145 75.145 0 0 1 37.518-64.979 74.9 74.9 0 0 1 75.036 0 74.991 74.991 0 0 1 37.518 64.979zM237.792 156a90.483 90.483 0 0 0-90.345 90.342 90.437 90.437 0 0 0 90.345 90.344 90.435 90.435 0 0 0 90.342-90.344A90.529 90.529 0 0 0 237.792 156z m0 149.847a59.582 59.582 0 0 1-59.58-59.58 59.579 59.579 0 0 1 59.58-59.577 59.577 59.577 0 0 1 59.577 59.577 59.579 59.579 0 0 1-59.577 59.579z"  horiz-adv-x="1024" />

    
    <glyph glyph-name="lajitongzhuangyunshuchelixian" unicode="&#59294;" d="M377.437 357.741c0 1.523 6.347 2.779 14.349 2.779h519.864c7.819 0 14.349-1.238 14.349-2.779v-110.229c0-1.543-6.438-2.779-14.349-2.779h-519.956a56.5 56.5 0 0 0-10.118 0.8c-2.667 0.522-4.23 1.238-4.23 1.974v110.234zM97.999 435.972v-184.6a11.815 11.815 0 0 1 11.914-11.838h260.893a11.8 11.8 0 0 1 11.838 11.838v350.713a11.864 11.864 0 0 1-11.838 11.914h-211.709zM295.961 426.73v141.9a9.6 9.6 0 0 1-2.827 6.8 9.463 9.463 0 0 1-6.8 2.827h-111.884l-49.263-144.043v-7.485zM838.029 244.958a76.354 76.354 0 0 1-76.377 76.371 76.287 76.287 0 0 1-76.3-76.374 76.491 76.491 0 0 1 38.187-66.141 76.1 76.1 0 0 1 76.3 0 76.5 76.5 0 0 1 38.19 66.144zM761.655 153a92.1 92.1 0 0 0-91.955 91.955 92.1 92.1 0 0 0 91.955 91.953 92.047 92.047 0 0 0 91.955-91.953 92.1 92.1 0 0 0-91.955-91.955z m0 152.519a60.594 60.594 0 0 1-55.982-37.423 60.585 60.585 0 0 1 13.137-66.064 60.617 60.617 0 0 1 66.062-13.137 60.66 60.66 0 0 1 37.423 56.061 60.674 60.674 0 0 1-60.64 60.564zM316.582 244.955a76.5 76.5 0 0 1-38.187 66.139 76.242 76.242 0 0 1-76.377 0 76.5 76.5 0 0 1-38.187-66.139 76.5 76.5 0 0 1 38.187-66.141 76.242 76.242 0 0 1 76.377 0 76.336 76.336 0 0 1 38.187 66.141zM240.285 153a92.1 92.1 0 0 0-91.956 91.955 92.046 92.046 0 0 0 91.956 91.953 92.045 92.045 0 0 0 91.953-91.953 92.144 92.144 0 0 0-91.953-91.955z m0 152.519a60.643 60.643 0 0 1-60.643-60.64 60.644 60.644 0 0 1 60.643-60.642 60.643 60.643 0 0 1 60.64 60.642 60.643 60.643 0 0 1-60.64 60.641zM382.422 510.091m2.372 0l538.833 0q2.372 0 2.372-2.372l0-147.938q0-2.372-2.372-2.372l-538.833 0q-2.372 0-2.372 2.372l0 147.938q0 2.372 2.372 2.372ZM884.628 594.697m2.372 0l36.627 0q2.372 0 2.372-2.372l0-232.826q0-2.372-2.372-2.372l-36.627 0q-2.372 0-2.372 2.372l0 232.826q0 2.372 2.372 2.372Z"  horiz-adv-x="1024" />

    
    <glyph glyph-name="guanlirenyuanbuzaigang1" unicode="&#59295;" d="M511.856 237.552l-154.257-27.541s-98.828-43.274-126.6-86.439q-0.417-0.648-0.834-1.319c-41.422-66.041 6.355-151.9 84.312-151.9h197.377z m0 0M511.954 237.552l154.248-27.541s98.828-43.274 126.6-86.439q0.417-0.648 0.835-1.319c41.414-66.045-6.364-151.9-84.321-151.9H511.951z m0 0M608.237 186.503s-23.255-40.5-98.129-40.5-95.24 41.43-95.24 41.43V410.424h193.257v-223.921z m0 0M608.237 327.908l-193.37-113.29v195.8h193.37z m0 0M512.207 759.618c-0.7 0-1.279 0.117-1.973 0.117-119.072 0-223.453-115.255-223.453-257.361 0-142.223 142.336-257.361 223.453-257.361a11.584 11.584 0 0 1 1.973 0.113z m0 0M511.954 759.618c0.686 0 1.267 0.117 1.965 0.117 119.076 0 223.453-115.255 223.453-257.361 0-142.223-142.336-257.361-223.453-257.361a11.4 11.4 0 0 0-1.965 0.113z m0 0M290.481 593.333c-3.815 66.771 47.654 116.526 74.482 175.429s79.688 11.69 141.215 11.69 126.063 31.471 152.9-3.938c15.729-20.709 83.963-86.209 82.341-183.3-1.153-68.159 3.707-97.088-7.284-116.526-3.819-6.6-12.49 63.3-47.532 136.085-16.54 34.251-28.219 61.8-67.658 95.817-19.2 11.8-37.128-7.3-61.414-11.8-40.826-7.521-76.792-7.868-107.556-7.868-35.857 0-87.327-47.1-104.555-91.77-30.534-78.918-37.475-136.2-37.475-136.2s-13.644 65.5-17.463 132.385z m0 0M262.227 493.884c8.854-28.033 27.444-47.152 41.519-42.709s18.313 30.781 9.459 58.814-27.444 47.148-41.527 42.705-18.3-30.777-9.451-58.81z m0 0M715.706 459.204c14.5-4.58 33.517 14.68 42.467 43.016s4.451 55.025-10.052 59.609-33.517-14.676-42.475-43.016-4.446-55.025 10.06-59.609z m0 0M533.718 94.788c-1.13 3.947-7.219 6.856-14.281 6.856h-13.649c-7.058 0-13.163-2.909-14.272-6.856l-34.889-124.431h111.906z m-41.466 16.662c0.956-2.966 5.084-5.181 9.33-5.181h23c4.229 0 8.381 2.215 9.333 5.181l7.34 22.872c1.977 6.1-1.958 11.7-9.019 11.7h-38.323c-7.058 0-10.984-5.593-9.031-11.7z m0 0"  horiz-adv-x="1024" />

    
    <glyph glyph-name="zixieshilajichelixian" unicode="&#59296;" d="M352.451 315.349c0 1.4 5.833 2.553 13.186 2.553H843.39c7.185 0 13.186-1.137 13.186-2.553v-101.3c0-1.418-5.917-2.556-13.186-2.556H365.553a51.9 51.9 0 0 0-9.3 0.742c-2.451 0.478-3.888 1.138-3.888 1.814v101.3zM95.995 387.79v-169.643a10.858 10.858 0 0 1 10.949-10.879h239.76a10.843 10.843 0 0 1 10.879 10.879v322.3a10.9 10.9 0 0 1-10.879 10.951h-194.56zM277.926 379.287V509.696a8.823 8.823 0 0 1-2.6 6.247 8.7 8.7 0 0 1-6.247 2.6H166.258l-45.273-132.377v-6.879zM775.851 211.506a70.168 70.168 0 0 1-70.188 70.188 70.106 70.106 0 0 1-70.117-70.187 70.289 70.289 0 0 1 35.094-60.781 69.93 69.93 0 0 1 70.117 0 70.294 70.294 0 0 1 35.094 60.78zM705.663 127.001a84.636 84.636 0 0 0-84.507 84.5 84.638 84.638 0 0 0 84.507 84.507 84.591 84.591 0 0 0 84.5-84.507 84.634 84.634 0 0 0-84.5-84.5z m0 140.164a55.686 55.686 0 0 1-51.447-34.392 55.679 55.679 0 0 1 12.07-60.713 55.707 55.707 0 0 1 60.713-12.073 55.743 55.743 0 0 1 34.388 51.518 55.76 55.76 0 0 1-55.724 55.66zM296.877 211.504a70.3 70.3 0 0 1-35.094 60.783 70.065 70.065 0 0 1-70.19 0 70.3 70.3 0 0 1-35.093-60.783 70.294 70.294 0 0 1 35.094-60.781 70.065 70.065 0 0 1 70.19 0 70.146 70.146 0 0 1 35.093 60.781zM226.757 127a84.634 84.634 0 0 0-84.5 84.5 84.591 84.591 0 0 0 84.5 84.507 84.592 84.592 0 0 0 84.507-84.507 84.68 84.68 0 0 0-84.507-84.5z m0 140.164a55.731 55.731 0 0 1-55.728-55.73 55.729 55.729 0 0 1 55.728-55.728 55.729 55.729 0 0 1 55.729 55.728 55.731 55.731 0 0 1-55.729 55.73zM679.526 640h-69.558l11.86-41.3-264.8-2.093v-278.651l467.5-0.07-10.281 23.091-120 280.186zM882.162 522.652l-148.884 87.279-34.166-0.127 125.422-291.92h24.767l78.7 56.86v33.7z"  horiz-adv-x="1024" />

    
    <glyph glyph-name="guanlirenyuanzhengchangzaigang1" unicode="&#59297;" d="M511.826 237.583l-153.82-27.461s-98.544-43.153-126.236-86.194q-0.414-0.647-0.832-1.314c-41.3-65.855 6.337-151.464 84.072-151.464h196.811z m0 0M512.177 237.583l153.809-27.461s98.545-43.153 126.243-86.194q0.414-0.647 0.832-1.314c41.3-65.859-6.346-151.464-84.081-151.464h-196.8z m0 0M608.06 186.7s-23.19-40.386-97.85-40.386-94.967 41.311-94.967 41.311V409.982h192.7V186.7z m0 0M608.06 327.704L415.243 214.736V409.982H608.06z m0 0M512.177 758.22c-0.694 0-1.274 0.118-1.967 0.118-118.731 0-222.813-114.927-222.813-256.629 0-141.816 141.927-256.625 222.813-256.625a11.49 11.49 0 0 1 1.967 0.113z m0 0M512.177 758.22c0.687 0 1.266 0.118 1.96 0.118 118.737 0 222.819-114.927 222.819-256.629 0-141.816-141.933-256.625-222.819-256.625a11.368 11.368 0 0 0-1.96 0.113z m0 0M291.087 592.409c-3.808 66.581 47.542 116.2 74.311 174.928s79.5 11.658 140.891 11.658 125.774 31.383 152.547-3.928c15.692-20.649 83.771-85.963 82.154-182.777-1.15-67.966 3.7-96.813-7.268-116.2-3.808-6.581-12.462 63.116-47.424 135.7-16.5 34.156-28.154 61.623-67.5 95.546-19.158 11.77-37.041-7.274-61.274-11.77-40.73-7.5-76.615-7.847-107.31-7.847-35.772 0-87.124-46.963-104.314-91.508-30.468-78.692-37.394-135.807-37.394-135.807s-13.612 65.306-17.421 132z m0 0M262.906 493.224c8.829-27.952 27.366-47.019 41.4-42.585s18.261 30.691 9.432 58.643-27.365 47.017-41.406 42.583-18.251-30.691-9.426-58.641z m0 0M715.349 458.646c14.462-4.57 33.422 14.638 42.346 42.893s4.44 54.867-10.023 59.436-33.422-14.631-42.352-42.893-4.434-54.867 10.029-59.436z m0 0M533.754 95.227c-1.128 3.935-7.2 6.834-14.239 6.834h-13.609c-7.037 0-13.127-2.9-14.231-6.834l-34.79-124.077h111.588z m-41.35 16.612c0.954-2.956 5.073-5.165 9.306-5.165h22.937c4.217 0 8.358 2.209 9.309 5.165l7.317 22.81c1.972 6.081-1.951 11.665-8.992 11.665h-38.214c-7.036 0-10.952-5.579-9.006-11.665z m0 0"  horiz-adv-x="1024" />

    
    <glyph glyph-name="gaoyaqingxichelixian" unicode="&#59298;" d="M371.607 357.956c0 1.5 6.239 2.734 14.1 2.734h511.014c7.686 0 14.1-1.217 14.1-2.734v-108.352c0-1.515-6.329-2.731-14.1-2.731h-511.1a55.54 55.54 0 0 0-9.947 0.793c-2.621 0.511-4.158 1.217-4.158 1.938V357.956zM507.185 613.503h291.943a126.435 126.435 0 0 0 126.435-126.434 126.434 126.434 0 0 0-126.435-126.433H507.185a126.432 126.432 0 0 0-126.432 126.432 126.433 126.433 0 0 0 126.432 126.435zM97.564 435.405v-181.453a11.614 11.614 0 0 1 11.711-11.636h256.452a11.6 11.6 0 0 1 11.639 11.636V598.691a11.664 11.664 0 0 1-11.639 11.711h-208.1zM292.155 426.326V565.814a9.437 9.437 0 0 1-2.779 6.682 9.307 9.307 0 0 1-6.679 2.776H172.713l-48.422-141.595v-7.355zM824.358 246.892a75.052 75.052 0 0 1-75.073 75.074 74.988 74.988 0 0 1-75-75.074 75.194 75.194 0 0 1 37.537-65.015 74.81 74.81 0 0 1 75 0 75.194 75.194 0 0 1 37.536 65.015zM749.284 156.503a90.531 90.531 0 0 0-90.39 90.39 90.531 90.531 0 0 0 90.39 90.39 90.482 90.482 0 0 0 90.39-90.39 90.53 90.53 0 0 0-90.39-90.39z m0 149.925a59.562 59.562 0 0 1-55.029-36.788 59.549 59.549 0 0 1 12.913-64.937 59.576 59.576 0 0 1 64.937-12.913 59.626 59.626 0 0 1 36.788 55.1 59.643 59.643 0 0 1-59.609 59.543zM312.425 246.892a75.195 75.195 0 0 1-37.537 65.015 74.939 74.939 0 0 1-75.074 0 75.189 75.189 0 0 1-37.537-65.015 75.189 75.189 0 0 1 37.537-65.015 74.951 74.951 0 0 1 75.074 0 75.037 75.037 0 0 1 37.537 65.015zM237.427 156.503a90.531 90.531 0 0 0-90.39 90.39 90.483 90.483 0 0 0 90.39 90.39 90.48 90.48 0 0 0 90.388-90.39 90.577 90.577 0 0 0-90.388-90.39z m0 149.925a59.611 59.611 0 0 1-59.61-59.61 59.609 59.609 0 0 1 59.61-59.607 59.607 59.607 0 0 1 59.607 59.607 59.609 59.609 0 0 1-59.607 59.615z"  horiz-adv-x="1024" />

    
    <glyph glyph-name="guanliyongcheyouxiaozuoye" unicode="&#59299;" d="M395.533 566l311.541-6.475 51.742-111.146 142.295-25.9 12.937-143.52H109.865l25.872 149.995 168.167 25.9zM108.779 319.445h111.036l-12.935-38.847H104.466a6.958 6.958 0 0 0-6.467 6.475v1.08l4.312 25.9c1.078 3.235 3.233 5.392 6.468 5.392z m818.22-6.473l-103.49 6.473 12.936-39.927H927zM213.461 279.694a77.7 77.7 0 0 1 77.7-77.694 77.694 77.694 0 0 1 77.694 77.694 77.7 77.7 0 0 1-77.694 77.7 77.7 77.7 0 0 1-77.7-77.7zM382.645 279.499a6.957 6.957 0 0 0-6.467-6.473 6.957 6.957 0 0 0-6.465 6.473 77.322 77.322 0 0 1-77.6 77.7 77.322 77.322 0 0 1-77.594-77.7 6.957 6.957 0 0 0-6.467-6.473 6.957 6.957 0 0 0-6.465 6.473 90.434 90.434 0 0 0 90.525 90.645 90.436 90.436 0 0 0 90.533-90.645z m453.71 0a6.957 6.957 0 0 0-6.465-6.473 6.957 6.957 0 0 0-6.467 6.473 77.322 77.322 0 0 1-77.594 77.7 77.322 77.322 0 0 1-77.594-77.7 6.959 6.959 0 0 0-6.467-6.473 6.958 6.958 0 0 0-6.467 6.473 90.436 90.436 0 0 0 90.528 90.641 90.434 90.434 0 0 0 90.526-90.641zM252.139 279.694a38.849 38.849 0 0 1 38.849-38.847 38.847 38.847 0 0 1 38.847 38.847 38.847 38.847 0 0 1-38.847 38.847 38.849 38.849 0 0 1-38.849-38.847zM668.018 279.694A77.694 77.694 0 0 1 745.712 202a77.694 77.694 0 0 1 77.694 77.694 77.7 77.7 0 0 1-77.694 77.7 77.7 77.7 0 0 1-77.694-77.7zM707.02 279.695a38.847 38.847 0 0 1 38.818-38.876 38.85 38.85 0 0 1 38.876 38.82v0.057a38.846 38.846 0 0 1-38.818 38.875 38.845 38.845 0 0 1-38.876-38.818zM408.338 533.628l-71.221-91.724h213.661l-6.476 91.724z m168.337 0h103.588l39.927-91.724H583.15z"  horiz-adv-x="1024" />

    
    <glyph glyph-name="huanweirenyuanbuzaigang1" unicode="&#59300;" d="M511.981 201.126L377.972 177.2s-85.858-37.6-109.984-75.1c-0.242-0.378-0.484-0.757-0.726-1.146-35.985-57.374 5.522-131.961 73.248-131.961h171.471z m0 0M512.018 201.126L646.027 177.2s85.854-37.6 109.988-75.1c0.242-0.378 0.48-0.757 0.726-1.146 35.979-57.378-5.529-131.961-73.255-131.961H512.018z m0 0M595.693 156.588s-20.207-35.187-85.252-35.187-82.741 35.993-82.741 35.993V351.122h167.894v-194.535z m0 0M595.693 279.382L427.7 180.96V351.066h167.993z m0 0M512.286 648.023c-0.6 0-1.107 0.1-1.711 0.1-103.445 0-194.128-100.13-194.128-223.586 0-123.558 123.657-223.586 194.128-223.586a10 10 0 0 1 1.711 0.1z m0 0M512.018 648.023c0.6 0 1.1 0.1 1.711 0.1 103.446 0 194.128-100.13 194.128-223.586 0-123.558-123.656-223.586-194.128-223.586a9.97 9.97 0 0 0-1.711 0.1z m0 0M319.661 503.238c-3.314 58.009 41.4 101.234 64.7 152.406S453.583 665.8 507.029 665.8s109.506 27.341 132.816-3.422c13.664-17.991 72.936-74.9 71.527-159.246-1-59.215 3.22-84.347-6.327-101.234-3.318-5.735-10.853 54.99-41.29 118.226-14.371 29.757-24.513 53.686-58.775 83.243-16.679 10.254-32.248-6.338-53.345-10.254-35.464-6.534-66.706-6.836-93.433-6.836-31.145 0-75.854-40.919-90.82-79.727-26.524-68.561-32.553-118.324-32.553-118.324s-11.852 56.9-15.169 115.011z m0 0M295.114 417.188c7.692-24.354 23.842-40.964 36.07-37.1s15.909 26.741 8.217 51.1-23.842 40.96-36.077 37.1-15.906-26.741-8.21-51.092z m0 0M689.035 387.052c12.6-3.979 29.118 12.754 36.894 37.371s3.867 47.8-8.732 51.786-29.122-12.75-36.9-37.371-3.863-47.8 8.74-51.786z m0 0M705.854 584.566c0 97.918-63.2 165.381-156.429 183.474-0.6 16.585-17.785 29.861-39.082 29.861s-38.483-13.275-39.083-29.86c-93.235-18.093-156.43-85.556-156.43-183.474 0-19.3-19.29-50.668-14.168-63.639 42.6-56.5 117.248-56.5 209.683-56.5s167.077 0 209.679 56.5c5.224 12.971-14.168 44.337-14.168 63.639z m0 0M705.855 584.566c0 67.057-29.639 119.737-78.163 152.21v-134.517h-0.2c-1.612-15.783-18.386-28.245-38.987-28.245s-37.371 12.463-38.983 28.245h-0.2v165.88h-0.1c-0.6 16.592-17.783 29.862-39.085 29.862-21.2 0-38.482-13.269-39.084-29.862h-0.1V602.26h-0.1c0-0.4 0.1-0.7 0.1-1.1 0-16.992-17.482-30.661-39.081-30.661s-38.681 13.668-38.681 30.661c0 0.4 0.1 0.7 0.1 1.1h-0.1V736.777c-48.53-32.473-78.166-85.154-78.166-152.21 0-19.3-19.291-50.668-14.266-63.639 42.6-56.5 117.25-56.5 209.679-56.5s167.085 0 209.68 56.5c5.125 12.971-14.266 44.337-14.266 63.639z m0 0M332.802 514.166c0-17.55 78.818-31.772 176.038-31.772s176.032 14.223 176.032 31.772-78.812 31.765-176.032 31.765-176.038-14.223-176.038-31.765z m0 0M358.729 168.961c-17.583-8.747-44.911-23.523-66.31-40.315v-159.544h74.95v199.86z m293.572 6.833c17.584-8.743 44.914-23.523 66.311-40.312v-166.38h-74.95V175.794z m0 0"  horiz-adv-x="1024" />

    
    <glyph glyph-name="guanliyongchelixian" unicode="&#59301;" d="M395.037 565.597l310.044-6.438 51.5-110.51 141.612-25.748 12.873-142.7H110.743l25.746 149.133 167.36 25.75zM109.666 320.392h110.5l-12.873-38.624H105.375a6.921 6.921 0 0 0-6.437 6.436v1.073l4.291 25.75c1.073 3.218 3.22 5.365 6.437 5.365z m814.271-6.438l-102.991 6.438 12.875-39.7h90.119zM213.739 280.847a77.248 77.248 0 0 1 77.249-77.249 77.248 77.248 0 0 1 77.249 77.249 77.248 77.248 0 0 1-77.249 77.249 77.248 77.248 0 0 1-77.249-77.249zM382.166 280.676a6.923 6.923 0 0 0-6.437-6.438 6.923 6.923 0 0 0-6.435 6.438 76.924 76.924 0 0 1-77.241 77.249 76.924 76.924 0 0 1-77.243-77.249 6.923 6.923 0 0 0-6.435-6.438 6.923 6.923 0 0 0-6.437 6.438 89.971 89.971 0 0 0 90.116 90.125 89.971 89.971 0 0 0 90.112-90.125z m451.648 0a6.925 6.925 0 0 0-6.438-6.438 6.925 6.925 0 0 0-6.437 6.438 76.924 76.924 0 0 1-77.241 77.249 76.924 76.924 0 0 1-77.241-77.249 6.923 6.923 0 0 0-6.437-6.438 6.923 6.923 0 0 0-6.435 6.438 89.97 89.97 0 0 0 90.114 90.125 89.971 89.971 0 0 0 90.115-90.125zM252.351 280.847a38.624 38.624 0 0 1 38.624-38.624 38.624 38.624 0 0 1 38.624 38.624 38.624 38.624 0 0 1-38.624 38.624 38.624 38.624 0 0 1-38.624-38.624zM666.44 280.847a77.248 77.248 0 0 1 77.249-77.249 77.248 77.248 0 0 1 77.249 77.249 77.248 77.248 0 0 1-77.249 77.249 77.248 77.248 0 0 1-77.249-77.249zM705.077 280.847a38.625 38.625 0 0 1 38.6-38.654 38.623 38.623 0 0 1 38.654 38.6v0.058a38.624 38.624 0 0 1-38.6 38.653 38.624 38.624 0 0 1-38.654-38.6zM407.901 533.409l-70.812-91.2h212.436l-6.438 91.2z m167.373 0h103l39.7-91.2H581.709z"  horiz-adv-x="1024" />

    
    <glyph glyph-name="huanweirenyuanyichangzaigang1" unicode="&#59302;" d="M512.388 200.497l-134.221-23.964s-85.994-37.658-110.158-75.214c-0.242-0.379-0.484-0.758-0.727-1.148-36.042-57.465 5.531-132.17 73.364-132.17h171.742z m0 0M512.609 200.497l134.221-23.964s85.99-37.658 110.162-75.214c0.242-0.379 0.481-0.758 0.727-1.148 36.036-57.469-5.538-132.17-73.371-132.17H512.609z m0 0M596.324 156.059s-20.238-35.242-85.387-35.242-82.872 36.05-82.872 36.05V350.901h168.16v-194.842z m0 0M596.324 279.094l-168.258-98.573V350.892h168.258z m0 0M512.694 648.516c-0.6 0-1.109 0.1-1.713 0.1-103.609 0-194.435-100.288-194.435-223.94 0-123.754 123.853-223.94 194.435-223.94a10.017 10.017 0 0 1 1.713 0.1z m0 0M512.609 648.516c0.6 0 1.106 0.1 1.714 0.1 103.61 0 194.435-100.288 194.435-223.94 0-123.754-123.852-223.94-194.435-223.94a9.992 9.992 0 0 0-1.714 0.1z m0 0M319.765 503.771c-3.32 58.1 41.481 101.394 64.832 152.648s69.364 10.172 122.92 10.172 109.731 27.384 133.089-3.427c13.691-18.02 73.085-75.014 71.674-159.5-1-59.308 3.227-84.48-6.34-101.394-3.324-5.744-10.875 55.077-41.374 118.413-14.4 29.8-24.563 53.771-58.9 83.374-16.713 10.271-32.314-6.348-53.454-10.27-35.537-6.545-66.843-6.847-93.624-6.847-31.209 0-76.009-40.983-91.006-79.853-26.578-68.669-32.619-118.511-32.619-118.511s-11.876 56.988-15.2 115.193z m0 0M295.18 417.279c7.7-24.393 23.88-41.029 36.127-37.163s15.935 26.784 8.23 51.176-23.88 41.025-36.134 37.159-15.931-26.784-8.224-51.173z m0 0M689.906 387.103c12.619-3.985 29.164 12.774 36.952 37.43s3.873 47.879-8.747 51.868-29.168-12.77-36.96-37.43-3.869-47.879 8.754-51.868z m0 0M706.745 585.229c0 98.072-63.323 165.643-156.745 183.764-0.6 16.612-17.82 29.909-39.16 29.909s-38.56-13.3-39.164-29.909c-93.423-18.122-156.746-85.692-156.746-183.764 0-19.333-19.329-50.748-14.2-63.74 42.688-56.587 117.484-56.587 210.106-56.587s167.414 0 210.1 56.587c5.234 12.992-14.2 44.407-14.2 63.74z m0 0M706.745 585.229c0 67.163-29.7 119.926-78.32 152.451v-134.73h-0.2c-1.615-15.808-18.423-28.29-39.066-28.29s-37.447 12.482-39.061 28.29h-0.2V769.091h-0.1C549.198 785.71 531.979 799 510.634 799c-21.239 0-38.559-13.29-39.163-29.909h-0.1V602.95h-0.1c0-0.4 0.1-0.7 0.1-1.106 0-17.019-17.518-30.709-39.159-30.709s-38.76 13.69-38.76 30.709c0 0.4 0.1 0.706 0.1 1.106h-0.1V737.682c-48.628-32.525-78.324-85.288-78.324-152.451 0-19.333-19.33-50.748-14.295-63.74 42.684-56.587 117.487-56.587 210.1-56.587s167.422 0 210.1 56.587c5.136 12.992-14.3 44.407-14.3 63.74z m0 0M333.015 514.49c0-17.578 78.943-31.823 176.316-31.823s176.311 14.245 176.311 31.823-78.936 31.815-176.311 31.815-176.316-14.245-176.316-31.815z m0 0M358.923 168.278c-17.619-8.761-45-23.561-66.444-40.379v-159.8h75.1V168.278z m294.163 6.843c17.619-8.757 45-23.56 66.444-40.376v-166.643h-75.1v207.02z m0 0"  horiz-adv-x="1024" />

    
    <glyph glyph-name="huanweirenyuanzhengchangzaigang1" unicode="&#59303;" d="M270.071 98.788q-0.361-0.565-0.728-1.149c-36.1-57.569 5.541-132.407 73.5-132.407h172.049V198.146L380.43 174.14s-86.151-37.727-110.359-75.352zM760.009 98.788c-24.213 37.625-110.359 75.349-110.359 75.349l-134.457 24.009v-232.914h172.041c67.955 0 109.6 74.834 73.5 132.407q-0.363 0.582-0.725 1.149zM599.013 153.662s-20.273-35.3-85.54-35.3-83.017 36.113-83.017 36.113V348.851h168.458v-195.189z m0 0M599.013 276.925L430.456 178.17V348.851h168.557z m0 0M515.193 647.046c-0.606 0-1.113 0.1-1.72 0.1-103.792 0-194.778-100.467-194.778-224.34 0-123.973 124.07-224.337 194.778-224.337a10.023 10.023 0 0 1 1.72 0.1z m0 0M515.193 647.046c0.6 0 1.107 0.1 1.714 0.1 103.8 0 194.783-100.467 194.783-224.34 0-123.973-124.075-224.337-194.783-224.337a9.917 9.917 0 0 0-1.714 0.1z m0 0M321.92 502.093c-3.329 58.2 41.561 101.576 64.962 152.919s69.5 10.19 123.164 10.19 109.949 27.435 133.354-3.433c13.718-18.051 73.231-75.147 71.817-159.78-1-59.415 3.232-84.633-6.353-101.575-3.329-5.754-10.9 55.174-41.458 118.623-14.426 29.858-24.611 53.869-59.01 83.524-16.747 10.289-32.38-6.359-53.564-10.289-35.6-6.555-66.975-6.86-93.808-6.86-31.272 0-76.162-41.054-91.19-79.994-26.631-68.792-32.685-118.721-32.685-118.721s-11.9 57.089-15.229 115.4z m0 0M297.289 415.387c7.718-24.435 23.923-41.1 36.191-37.227s15.963 26.83 8.245 51.265-23.922 41.1-36.2 37.225-15.958-26.828-8.24-51.263z m0 0M692.802 385.159c12.643-3.994 29.218 12.8 37.019 37.5s3.881 47.963-8.762 51.958-29.218-12.791-37.024-37.5-3.876-47.963 8.767-51.958z m0 0M709.672 583.697c0 98.246-63.449 165.937-157.057 184.091-0.6 16.643-17.854 29.961-39.24 29.961s-38.634-13.318-39.24-29.961c-93.607-18.154-157.057-85.845-157.057-184.091 0-19.366-19.366-50.84-14.224-63.852 42.772-56.691 117.718-56.691 210.521-56.691s167.749 0 210.521 56.691c5.245 13.012-14.224 44.486-14.224 63.852z m0 0M709.672 583.697c0 67.281-29.76 120.139-78.476 152.721v-134.972h-0.2c-1.615-15.835-18.46-28.34-39.142-28.34s-37.521 12.505-39.137 28.34h-0.2v166.44h-0.1c-0.606 16.648-17.855 29.962-39.241 29.962-21.282 0-38.635-13.314-39.24-29.962h-0.1v-166.44h-0.1c0-0.4 0.1-0.7 0.1-1.109 0-17.046-17.555-30.763-39.241-30.763s-38.837 13.717-38.837 30.763c0 0.4 0.1 0.71 0.1 1.109h-0.1V736.418c-48.722-32.582-78.476-85.44-78.476-152.721 0-19.366-19.367-50.84-14.323-63.852 42.767-56.691 117.717-56.691 210.515-56.691s167.754 0 210.521 56.691c5.147 13.012-14.322 44.486-14.322 63.852z m0 0M335.234 512.786c0-17.608 79.082-31.876 176.629-31.876s176.624 14.268 176.624 31.876-79.077 31.872-176.624 31.872-176.629-14.268-176.629-31.872z m0 0M361.161 165.868c-17.653-8.777-45.091-23.6-66.576-40.452v-160.08h75.249V165.868z m294.745 6.855c17.652-8.772 45.092-23.6 66.576-40.447v-166.94h-75.25V172.723z m0 0"  horiz-adv-x="1024" />

    
    <glyph glyph-name="lajitongzhuangyunshuchefeizhengchangzuoye" unicode="&#59304;" d="M377.563 358.299c0 1.531 6.367 2.79 14.4 2.79h521.543c7.844 0 14.4-1.242 14.4-2.79v-110.58c0-1.546-6.459-2.788-14.4-2.788H391.866a56.662 56.662 0 0 0-10.151 0.81c-2.675 0.521-4.244 1.242-4.244 1.978v110.58zM96.999 437.397v-185.192a11.853 11.853 0 0 1 11.952-11.876h261.736a11.837 11.837 0 0 1 11.876 11.876v351.843a11.9 11.9 0 0 1-11.876 11.953h-212.392zM295.6 428.126v142.361a9.623 9.623 0 0 1-2.836 6.819 9.493 9.493 0 0 1-6.819 2.836h-112.249l-49.422-144.503v-7.509zM839.643 244.925a76.6 76.6 0 0 1-76.621 76.621 76.534 76.534 0 0 1-76.544-76.621 76.738 76.738 0 0 1 38.31-66.354 76.339 76.339 0 0 1 76.544 0 76.744 76.744 0 0 1 38.311 66.354zM763.022 152.673a92.4 92.4 0 0 0-92.253 92.252 92.4 92.4 0 0 0 92.253 92.252 92.347 92.347 0 0 0 92.252-92.252 92.4 92.4 0 0 0-92.252-92.252z m0 153.011a60.786 60.786 0 0 1-56.162-37.544 60.776 60.776 0 0 1 13.179-66.274 60.8 60.8 0 0 1 66.274-13.179 60.852 60.852 0 0 1 37.544 56.239 60.868 60.868 0 0 1-60.835 60.759zM316.288 244.926a76.744 76.744 0 0 1-38.31 66.354 76.5 76.5 0 0 1-76.623 0 76.744 76.744 0 0 1-38.31-66.354 76.744 76.744 0 0 1 38.31-66.354 76.487 76.487 0 0 1 76.623 0 76.583 76.583 0 0 1 38.31 66.354zM239.743 152.674a92.394 92.394 0 0 0-92.252 92.252 92.345 92.345 0 0 0 92.252 92.252 92.345 92.345 0 0 0 92.25-92.252 92.443 92.443 0 0 0-92.25-92.252z m0 153.011a60.838 60.838 0 0 1-60.838-60.836 60.84 60.84 0 0 1 60.838-60.838 60.839 60.839 0 0 1 60.836 60.838 60.837 60.837 0 0 1-60.836 60.837zM382.565 511.475m2.372 0l540.589 0q2.372 0 2.372-2.372l0-148.431q0-2.372-2.372-2.372l-540.589 0q-2.372 0-2.372 2.372l0 148.431q0 2.372 2.372 2.372ZM886.392 596.637m2.372 0l36.761 0q2.372 0 2.372-2.372l0-233.593q0-2.372-2.372-2.372l-36.761 0q-2.372 0-2.372 2.372l0 233.593q0 2.372 2.372 2.372Z"  horiz-adv-x="1024" />

    
    <glyph glyph-name="gaoyaqingxicheyouxiaozuoye" unicode="&#59305;" d="M372.553 356.952c0 1.5 6.235 2.73 14.1 2.73h510.724c7.681 0 14.1-1.215 14.1-2.73v-108.291c0-1.515-6.326-2.731-14.1-2.731H386.562a55.421 55.421 0 0 0-9.94 0.793c-2.62 0.511-4.156 1.216-4.156 1.938V356.952zM508.054 612.407h291.777a126.362 126.362 0 0 0 126.362-126.361 126.362 126.362 0 0 0-126.362-126.362H508.054a126.362 126.362 0 0 0-126.362 126.362 126.362 126.362 0 0 0 126.362 126.361zM97.808 434.409v-181.351a11.609 11.609 0 0 1 11.705-11.63h256.308a11.593 11.593 0 0 1 11.63 11.63V597.603a11.657 11.657 0 0 1-11.63 11.7H157.833zM292.29 425.331V564.739a9.434 9.434 0 0 1-2.776 6.678 9.3 9.3 0 0 1-6.678 2.776H172.915l-48.4-141.509v-7.353zM825.047 245.93a75.011 75.011 0 0 1-75.031 75.032 74.947 74.947 0 0 1-74.957-75.032 75.149 75.149 0 0 1 37.516-64.977 74.758 74.758 0 0 1 74.957 0 75.151 75.151 0 0 1 37.515 64.977zM750.016 155.592a90.478 90.478 0 0 0-90.338 90.338 90.478 90.478 0 0 0 90.338 90.338 90.43 90.43 0 0 0 90.338-90.338 90.478 90.478 0 0 0-90.338-90.338z m0 149.838a59.53 59.53 0 0 1-55-36.765 59.523 59.523 0 0 1 12.905-64.9 59.55 59.55 0 0 1 64.9-12.906 59.594 59.594 0 0 1 36.766 55.073 59.608 59.608 0 0 1-59.571 59.498zM312.548 245.93a75.151 75.151 0 0 1-37.515 64.978 74.9 74.9 0 0 1-75.032 0 75.15 75.15 0 0 1-37.516-64.978 75.15 75.15 0 0 1 37.516-64.977 74.9 74.9 0 0 1 75.032 0 74.993 74.993 0 0 1 37.515 64.977zM237.592 155.592a90.478 90.478 0 0 0-90.338 90.338 90.429 90.429 0 0 0 90.338 90.338 90.43 90.43 0 0 0 90.338-90.338 90.527 90.527 0 0 0-90.338-90.338z m0 149.838a59.576 59.576 0 0 1-59.575-59.575 59.577 59.577 0 0 1 59.575-59.575 59.576 59.576 0 0 1 59.575 59.575 59.576 59.576 0 0 1-59.575 59.575z"  horiz-adv-x="1024" />

    
    <glyph glyph-name="gaoyaqingxichefeiyouxiaozuoye" unicode="&#59306;" d="M372.589 356.757c0 1.5 6.255 2.741 14.14 2.741h512.3c7.705 0 14.14-1.22 14.14-2.741v-108.625c0-1.518-6.345-2.738-14.14-2.738H386.641a55.658 55.658 0 0 0-9.971 0.8c-2.628 0.512-4.169 1.22-4.169 1.943v108.62zM508.508 613h292.677a126.753 126.753 0 0 0 126.752-126.752 126.752 126.752 0 0 0-126.752-126.75H508.508a126.75 126.75 0 0 0-126.75 126.75A126.751 126.751 0 0 0 508.508 613zM96.999 434.456v-181.909a11.643 11.643 0 0 1 11.741-11.665h257.1a11.629 11.629 0 0 1 11.668 11.665v345.6a11.693 11.693 0 0 1-11.668 11.741H157.212zM292.08 425.349V565.187a9.451 9.451 0 0 1-2.786 6.7 9.322 9.322 0 0 1-6.7 2.786H172.333l-48.54-141.951v-7.374zM826.477 245.395a75.243 75.243 0 0 1-75.262 75.262 75.179 75.179 0 0 1-75.187-75.262 75.383 75.383 0 0 1 37.631-65.178 74.986 74.986 0 0 1 75.187 0 75.382 75.382 0 0 1 37.631 65.178zM751.215 154.778a90.758 90.758 0 0 0-90.617 90.617 90.758 90.758 0 0 0 90.617 90.617 90.709 90.709 0 0 0 90.617-90.617 90.758 90.758 0 0 0-90.617-90.617z m0 150.3a59.711 59.711 0 0 1-55.167-36.881 59.7 59.7 0 0 1 12.945-65.1 59.726 59.726 0 0 1 65.1-12.945 59.776 59.776 0 0 1 36.881 55.242 59.793 59.793 0 0 1-59.759 59.685zM312.402 245.395a75.384 75.384 0 0 1-37.631 65.178 75.127 75.127 0 0 1-75.262 0 75.378 75.378 0 0 1-37.631-65.178 75.378 75.378 0 0 1 37.631-65.178 75.127 75.127 0 0 1 75.262 0 75.224 75.224 0 0 1 37.631 65.178zM237.21 154.778a90.758 90.758 0 0 0-90.617 90.617 90.71 90.71 0 0 0 90.617 90.617 90.707 90.707 0 0 0 90.614-90.617 90.8 90.8 0 0 0-90.614-90.617z m0 150.3a59.761 59.761 0 0 1-59.76-59.76 59.759 59.759 0 0 1 59.76-59.757 59.756 59.756 0 0 1 59.757 59.757 59.758 59.758 0 0 1-59.757 59.761z"  horiz-adv-x="1024" />

    
    <glyph glyph-name="guanliyongchefeiyouxiaozuoye" unicode="&#59307;" d="M396.023 564l308.917-6.412 51.309-110.1 141.1-25.654 12.826-142.173H112.762l25.652 148.585 166.752 25.656zM111.689 319.447h110.1l-12.826-38.485H107.416a6.9 6.9 0 0 0-6.414 6.414v1.071l4.276 25.656c1.067 3.201 3.205 5.344 6.411 5.344z m811.31-6.414l-102.616 6.414 12.828-39.552h89.791zM215.38 279.965A76.965 76.965 0 0 1 292.345 203a76.965 76.965 0 0 1 76.965 76.965 76.965 76.965 0 0 1-76.965 76.965 76.965 76.965 0 0 1-76.965-76.965zM383.196 279.884a6.9 6.9 0 0 0-6.414-6.414 6.9 6.9 0 0 0-6.412 6.414 76.643 76.643 0 0 1-76.961 76.965 76.644 76.644 0 0 1-76.963-76.965 6.9 6.9 0 0 0-6.412-6.414 6.9 6.9 0 0 0-6.414 6.414 89.643 89.643 0 0 0 89.789 89.792 89.642 89.642 0 0 0 89.787-89.792z m450.011 0a6.9 6.9 0 0 0-6.414-6.414 6.9 6.9 0 0 0-6.414 6.414 76.643 76.643 0 0 1-76.961 76.965 76.643 76.643 0 0 1-76.961-76.965 6.9 6.9 0 0 0-6.414-6.414 6.9 6.9 0 0 0-6.412 6.414 89.641 89.641 0 0 0 89.787 89.792 89.643 89.643 0 0 0 89.785-89.792zM253.855 279.966a38.482 38.482 0 0 1 38.482-38.482 38.482 38.482 0 0 1 38.482 38.482 38.482 38.482 0 0 1-38.482 38.482 38.482 38.482 0 0 1-38.482-38.482zM666.449 279.965A76.965 76.965 0 0 1 743.414 203a76.965 76.965 0 0 1 76.965 76.965 76.965 76.965 0 0 1-76.965 76.965 76.965 76.965 0 0 1-76.965-76.965zM704.937 279.964a38.481 38.481 0 0 1 38.454-38.512 38.481 38.481 0 0 1 38.511 38.453v0.058a38.482 38.482 0 0 1-38.453 38.518 38.486 38.486 0 0 1-38.512-38.455zM408.844 531.932l-70.552-90.861h211.656l-6.414 90.861z m166.759 0h102.62l39.55-90.861h-135.76z"  horiz-adv-x="1024" />

    
    <glyph glyph-name="zixieshilajichefeiyouxiaozuoye" unicode="&#59308;" d="M353.4 316.074c0 1.4 5.819 2.55 13.155 2.55h476.624c7.168 0 13.155-1.135 13.155-2.55v-101.06c0-1.413-5.9-2.547-13.155-2.547H366.471a51.765 51.765 0 0 0-9.277 0.74c-2.445 0.476-3.878 1.135-3.878 1.807v101.06zM96.995 388.362V219.12a10.833 10.833 0 0 1 10.928-10.858h239.193a10.817 10.817 0 0 1 10.853 10.853V540.654a10.877 10.877 0 0 1-10.853 10.923h-194.1zM278.496 379.886v130.1a8.8 8.8 0 0 1-2.592 6.232 8.675 8.675 0 0 1-6.232 2.592H167.091l-45.165-132.064v-6.86zM775.682 212.464a70 70 0 0 1-70.022 70.021 69.942 69.942 0 0 1-69.951-70.021 70.129 70.129 0 0 1 35.011-60.64 69.765 69.765 0 0 1 69.951 0 70.134 70.134 0 0 1 35.011 60.64zM705.661 128.156a84.438 84.438 0 0 0-84.307 84.307 84.438 84.438 0 0 0 84.307 84.307 84.391 84.391 0 0 0 84.3-84.307 84.436 84.436 0 0 0-84.3-84.307z m0 139.835a55.553 55.553 0 0 1-51.325-34.31 55.545 55.545 0 0 1 12.042-60.567 55.572 55.572 0 0 1 60.569-12.044 55.611 55.611 0 0 1 34.31 51.4 55.628 55.628 0 0 1-55.596 55.521zM297.404 212.464a70.134 70.134 0 0 1-35.011 60.639 69.9 69.9 0 0 1-70.024 0 70.134 70.134 0 0 1-35.011-60.639 70.134 70.134 0 0 1 35.011-60.639 69.9 69.9 0 0 1 70.024 0 69.987 69.987 0 0 1 35.011 60.639zM227.449 128.156a84.436 84.436 0 0 0-84.3 84.307 84.391 84.391 0 0 0 84.3 84.307 84.392 84.392 0 0 0 84.307-84.307 84.482 84.482 0 0 0-84.307-84.307z m0 139.835a55.6 55.6 0 0 1-55.6-55.6 55.6 55.6 0 0 1 55.6-55.6 55.6 55.6 0 0 1 55.6 55.6 55.6 55.6 0 0 1-55.6 55.6zM679.7 640h-69.394l11.832-41.2-264.17-2.088v-277.996l466.4-0.07-10.268 23.038-119.713 279.523zM881.858 522.93l-148.532 87.073-34.086-0.127 125.126-291.229h24.709l78.512 56.726v33.618z"  horiz-adv-x="1024" />

    
    <glyph glyph-name="guanlirenyuanyichangzaigang1" unicode="&#59309;" d="M512.056 237.286l-154.308-27.55s-98.861-43.289-126.642-86.469q-0.417-0.648-0.835-1.32C188.834 55.884 236.628-30 314.612-30h197.444z m0 0M511.952 237.286l154.3-27.55s98.862-43.289 126.646-86.469q0.417-0.648 0.835-1.32C835.161 55.879 787.367-30 709.384-30H511.952z m0 0M608.368 186.132s-23.263-40.516-98.163-40.516-95.272 41.444-95.272 41.444V410.129h193.322v-224z m0 0M608.368 327.562L414.933 214.234v195.87h193.435z m0 0M512.406 759.247c-0.7 0-1.279 0.117-1.974 0.117-119.113 0-223.529-115.294-223.529-257.448 0-142.271 142.384-257.449 223.529-257.449a11.587 11.587 0 0 1 1.974 0.113z m0 0M511.951 759.247c0.687 0 1.268 0.117 1.966 0.117 119.117 0 223.528-115.294 223.528-257.448 0-142.271-142.384-257.449-223.528-257.449a11.409 11.409 0 0 0-1.966 0.113z m0 0M290.605 592.906c-3.814 66.794 47.649 116.566 74.473 175.489s79.68 11.694 141.2 11.694 126.051 31.482 152.883-3.94c15.727-20.716 83.954-86.239 82.333-183.364-1.154-68.183 3.706-97.121-7.283-116.566-3.818-6.6-12.488 63.319-47.527 136.132-16.538 34.263-28.216 61.817-67.65 95.85-19.2 11.807-37.124-7.3-61.408-11.807-40.822-7.524-76.784-7.872-107.545-7.872-35.854 0-87.317-47.115-104.544-91.8-30.531-78.945-37.47-136.245-37.47-136.245s-13.642 65.519-17.461 132.43z m0 0M262.341 493.519c8.856-28.042 27.453-47.168 41.533-42.724s18.318 30.792 9.461 58.834-27.453 47.164-41.541 42.72-18.31-30.792-9.454-58.83z m0 0M715.772 458.824c14.507-4.582 33.528 14.685 42.481 43.03s4.453 55.043-10.055 59.629-33.528-14.681-42.49-43.031-4.448-55.043 10.064-59.629z m0 0M533.823 94.474c-1.13 3.948-7.222 6.858-14.286 6.858h-13.656c-7.06 0-13.167-2.911-14.277-6.858L456.704-30h111.944z m-41.48 16.667c0.956-2.967 5.086-5.183 9.333-5.183h23.013c4.23 0 8.384 2.216 9.336 5.183l7.342 22.877c1.978 6.1-1.958 11.7-9.022 11.7H494.01c-7.061 0-10.988-5.595-9.034-11.7z m0 0"  horiz-adv-x="1024" />

    
    <glyph glyph-name="zixieshilajicheyouxiaozuoye" unicode="&#59310;" d="M353.905 316.377c0 1.394 5.808 2.543 13.13 2.543h475.717c7.155 0 13.13-1.133 13.13-2.543v-100.868c0-1.412-5.892-2.545-13.13-2.545h-475.8a51.686 51.686 0 0 0-9.259 0.739c-2.44 0.478-3.871 1.133-3.871 1.806V316.377zM97.999 388.294v-168.922a10.812 10.812 0 0 1 10.9-10.832h238.738a10.8 10.8 0 0 1 10.837 10.832V540.301a10.858 10.858 0 0 1-10.835 10.9h-193.73zM279.15 379.667V509.515a8.79 8.79 0 0 1-2.585 6.22 8.664 8.664 0 0 1-6.22 2.584H167.957L122.88 386.511v-6.849zM775.383 213.144a69.869 69.869 0 0 1-69.888 69.891 69.811 69.811 0 0 1-69.818-69.891 70 70 0 0 1 34.944-60.522 69.632 69.632 0 0 1 69.818 0 70 70 0 0 1 34.944 60.522zM705.495 129a84.276 84.276 0 0 0-84.146 84.146 84.275 84.275 0 0 0 84.146 84.144 84.23 84.23 0 0 0 84.146-84.144A84.276 84.276 0 0 0 705.495 129z m0 139.567a55.449 55.449 0 0 1-51.228-34.245 55.443 55.443 0 0 1 12.021-60.454 55.472 55.472 0 0 1 60.454-12.021 55.512 55.512 0 0 1 34.245 51.3 55.523 55.523 0 0 1-55.492 55.42zM298.018 213.144a70 70 0 0 1-34.944 60.524 69.762 69.762 0 0 1-69.888 0 70 70 0 0 1-34.944-60.524 70 70 0 0 1 34.944-60.522 69.762 69.762 0 0 1 69.888 0 69.853 69.853 0 0 1 34.944 60.522zM228.201 129a84.276 84.276 0 0 0-84.146 84.146 84.231 84.231 0 0 0 84.146 84.144 84.228 84.228 0 0 0 84.144-84.144A84.319 84.319 0 0 0 228.201 129z m0 139.567a55.493 55.493 0 0 1-55.492-55.49 55.494 55.494 0 0 1 55.492-55.492 55.492 55.492 0 0 1 55.49 55.492 55.491 55.491 0 0 1-55.49 55.49zM679.585 639h-69.259l11.81-41.126-263.667-2.084v-277.463l465.508-0.069-10.245 22.994-119.489 278.992zM881.358 522.15l-148.249 86.907-34.021-0.127 124.887-290.672h24.662l78.362 56.618V408.43z"  horiz-adv-x="1024" />

    
    <glyph glyph-name="lajitongzhuangyunshuchezhengchangzuoye" unicode="&#59311;" d="M376.848 357.51c0 1.527 6.365 2.787 14.39 2.787h521.371c7.841 0 14.39-1.241 14.39-2.787V246.962c0-1.548-6.457-2.789-14.39-2.789h-521.463a56.623 56.623 0 0 0-10.148 0.81c-2.674 0.521-4.243 1.241-4.243 1.98v110.547zM96.999 436.454V251.323a11.852 11.852 0 0 1 11.951-11.872h261.65a11.833 11.833 0 0 1 11.871 11.872v351.728a11.9 11.9 0 0 1-11.872 11.949h-212.322zM295.537 427.187v142.315a9.629 9.629 0 0 1-2.835 6.817 9.5 9.5 0 0 1-6.817 2.833h-112.211l-49.406-144.458v-7.507zM838.774 244.219a76.574 76.574 0 0 1-76.6 76.6 76.509 76.509 0 0 1-76.521-76.6 76.711 76.711 0 0 1 38.3-66.33 76.315 76.315 0 0 1 76.519 0 76.717 76.717 0 0 1 38.302 66.33zM762.179 152a92.362 92.362 0 0 0-92.222 92.219 92.364 92.364 0 0 0 92.222 92.222 92.314 92.314 0 0 0 92.219-92.222 92.361 92.361 0 0 0-92.219-92.219z m0 152.961A60.773 60.773 0 0 1 706.033 267.43a60.769 60.769 0 0 1 13.175-66.256 60.8 60.8 0 0 1 66.256-13.175 60.839 60.839 0 0 1 37.531 56.22 60.852 60.852 0 0 1-60.816 60.741zM316.216 244.219a76.713 76.713 0 0 1-38.3 66.333 76.457 76.457 0 0 1-76.6 0 76.718 76.718 0 0 1-38.3-66.333 76.714 76.714 0 0 1 38.3-66.33 76.457 76.457 0 0 1 76.6 0 76.551 76.551 0 0 1 38.3 66.33zM239.697 152a92.361 92.361 0 0 0-92.219 92.219 92.314 92.314 0 0 0 92.219 92.222 92.316 92.316 0 0 0 92.222-92.222 92.413 92.413 0 0 0-92.222-92.219z m0 152.961a60.817 60.817 0 0 1-60.815-60.818 60.817 60.817 0 0 1 60.815-60.815 60.819 60.819 0 0 1 60.818 60.815 60.819 60.819 0 0 1-60.818 60.817zM381.846 510.566m2.372 0l540.408 0q2.372 0 2.372-2.372l0-148.381q0-2.372-2.372-2.372l-540.408 0q-2.372 0-2.372 2.372l0 148.381q0 2.372 2.372 2.372ZM885.508 595.641m2.372 0l36.747 0q2.372 0 2.372-2.372l0-233.514q0-2.372-2.372-2.372l-36.747 0q-2.372 0-2.372 2.372l0 233.514q0 2.372 2.372 2.372Z"  horiz-adv-x="1024" />

    
    <glyph glyph-name="maikefeng" unicode="&#59289;" d="M686.029 659.878v-275.537c0-47.4-17.212-88.036-51.072-121.473s-74.916-50.648-122.884-50.648c-47.827 0-88.46 16.648-122.884 50.648-33.86 33.861-51.071 74.069-51.071 121.473V659.879c0 47.4 17.212 88.036 51.073 121.472Q439.98 832.142 512.075 832c47.827 0 88.459-16.648 122.884-50.649s51.072-73.928 51.072-121.473zM824.999 453.472v-68.707c0-79.007-26.664-148.137-79.994-206.829s-119.215-92.128-197.8-100.733v-70.97h139.108c9.453 0 17.635-3.668 24.407-10.44s10.44-14.954 10.44-24.407-3.668-17.635-10.44-24.407-14.954-10.44-24.407-10.44H338.684c-9.452 0-17.635 3.668-24.407 10.44s-10.44 14.955-10.44 24.407 3.668 17.635 10.44 24.407 14.955 10.44 24.407 10.44h139.109v70.4q-117.875 12.911-197.8 100.734c-53.329 58.69-79.995 127.4-79.995 206.83v68.712c0 9.453 3.668 17.635 10.44 24.407s14.955 10.44 24.407 10.44 17.635-3.668 24.407-10.44 10.44-14.954 10.44-24.407v-68.707c0-66.451 23.985-123.307 71.389-170.289s104.825-70.965 172.122-70.965 124.154 23.42 172.121 70.965c47.4 46.982 71.389 103.838 71.389 170.289v68.707c0 9.453 3.668 17.635 10.44 24.407s14.955 10.44 24.407 10.44 17.635-3.668 24.407-10.44c5.925-6.207 9.029-14.249 9.029-23.843z"  horiz-adv-x="1024" />

    
    <glyph glyph-name="yiwenjian" unicode="&#59283;" d="M145.7 41.089a30.387 30.387 0 0 0-30.378 30.224L112 690.812a30.385 30.385 0 0 0 29.819 30.543l249.112 4.64c0.181 0 0.373 0.005 0.57 0.005a30.386 30.386 0 0 0 23.363-10.962l54.242-65.255a30.293 30.293 0 0 1 23.367-10.963h0.126l387.3 1.634h0.131a30.383 30.383 0 0 0 30.382-30.295L912 78.34a30.383 30.383 0 0 0-30.1-30.474l-735.914-6.775z m185.062 335.438c-16.985 0-30.8-13.032-30.8-29.05s13.818-29.05 30.8-29.05h307.165l-53.316-51.875a29.05 29.05 0 0 1 40.516-41.641L733.28 330.142a29.048 29.048 0 0 1-2.4 43.734L619.589 460.6a29.049 29.049 0 1 1-35.709-45.828l49.073-38.24z"  horiz-adv-x="1024" />

    
    <glyph glyph-name="suodingwenjian" unicode="&#59284;" d="M910.448 753.286a29.436 29.436 0 0 1-29.086 29.18l-145.06 1.471a29.434 29.434 0 0 1-29.68-29.189 29.44 29.44 0 0 1 29.086-29.786l87.488-0.887a29.437 29.437 0 0 0 29.086-29.18l0.949-91.431a29.435 29.435 0 0 1 29.69-29.18 29.44 29.44 0 0 1 29.077 29.8zM293.201 782.523l-146.916 1.476a29.435 29.435 0 0 1-29.677-29.2l-1.478-150.975a29.439 29.439 0 0 1 29.1-29.775 29.433 29.433 0 0 1 29.67 29.2l0.9 91.989a29.434 29.434 0 0 0 29.677 29.2l88.138-0.885a29.489 29.489 0 0 1 0.588 58.974zM293.192 44.979l-93.325 0.913a29.439 29.439 0 0 0-29.1 29.488v83.722a29.385 29.385 0 1 1-58.769 0v-142.129a29.437 29.437 0 0 1 29.1-29.487l151.521-1.483a29.434 29.434 0 0 1 29.67 29.2 29.44 29.44 0 0 1-29.097 29.776zM872.344 190.359a29.438 29.438 0 0 1-29.333-29.539l0.155-88.148a29.436 29.436 0 0 0-29.331-29.541l-83.171-0.152a29.437 29.437 0 0 1-29.331-29.543 29.435 29.435 0 0 1 29.438-29.435l141.932 0.259a29.436 29.436 0 0 1 29.331 29.541l-0.254 147.119a29.437 29.437 0 0 1-29.436 29.439zM653.957 418.592h-7.942l-1.219 163.7-4.519 7.137c-1.742 2.754-43.736 67.427-134.643 67.427-92.647 0-128.636-67.922-130.123-70.813a29.591 29.591 0 0 1-3.269-13.842l1.663-153.6h-5.778a14.171 14.171 0 0 1-14.1-14.155v-240.624a14.17 14.17 0 0 1 14.1-14.155h285.83a14.171 14.171 0 0 1 14.1 14.155V404.437a14.171 14.171 0 0 1-14.1 14.155zM431.103 563.954c8.1 10.746 30.668 33.919 74.53 33.919 44.707 0 70.608-23.194 80.532-34.431l1.079-144.85H432.677z"  horiz-adv-x="1024" />

    
    <glyph glyph-name="zuoyezhiliangjiancha" unicode="&#59285;" d="M507.5-16a68.207 68.207 0 0 0-18.2 2.854 144.942 144.942 0 0 0-21.2 8.062c-14.222 6.584-30.736 16.265-49.084 28.775-30.9 21.069-67.5 50.446-108.792 87.316C273.479 143.81 239.759 176.6 217.94 198.322 194.171 221.99 179.149 237.853 179 238.01L184.554 701.385l163.14 41.734c1.619 0.384 40 9.49 78.535 18.939C462.307 770.9 505.791 781.843 508.066 783.715c16.152-5.19 332.852-80.928 336.049-81.692l-4.106-457.544-0.016-0.017c-1.625-1.728-16.536-17.547-39.549-40.683-22.161-22.28-56.4-55.9-93.651-89.539-41.869-37.808-78.936-67.934-110.17-89.539-18.545-12.828-35.212-22.756-49.54-29.507a144.976 144.976 0 0 0-21.33-8.267A67.088 67.088 0 0 0 507.5-16z m77.981 356.949l113.657-79.621a12.9 12.9 0 0 1 7.438-2.342 13.048 13.048 0 0 1 10.69 5.535l12.57 17.943a13.029 13.029 0 0 1-3.192 18.127L613.5 379.846a156.183 156.183 0 0 1 17 71.069c0 86.487-70.362 156.85-156.849 156.85S316.8 537.4 316.8 450.915s70.363-156.85 156.851-156.85a155.7 155.7 0 0 1 111.83 46.884zM508.066 783.715c-0.445 0.143-0.659 0.231-0.653 0.267 0 0.012 0.03 0.019 0.084 0.019 0.407 0 0.629-0.043 0.66-0.128 0.015-0.043-0.016-0.096-0.091-0.158zM473.498 451.369m-106.561 0a106.561 106.561 0 1 1 213.122 0 106.561 106.561 0 1 1-213.122 0Z"  horiz-adv-x="1024" />

    
    <glyph glyph-name="yanqishenhe" unicode="&#59286;" d="M821.722 401.534a355.254 355.254 0 1 1-354.638-372.7v40.7c-173.353 0-314.386 141.034-314.386 314.386S293.73 698.303 467.083 698.303a314.15 314.15 0 0 0 313.935-297.739l-77.555-1.846 99.3-121.646L912 403.682zM458.215 190.965a197.379 197.379 0 0 0-39.485 3.98 194.846 194.846 0 0 0-70.056 29.48 196.5 196.5 0 0 0-70.983 86.2 194.927 194.927 0 0 0-11.417 36.776 197.829 197.829 0 0 0 0 78.97 194.839 194.839 0 0 0 29.48 70.057 196.492 196.492 0 0 0 86.2 70.984 194.932 194.932 0 0 0 36.776 11.416 197.831 197.831 0 0 0 78.97 0 194.849 194.849 0 0 0 70.056-29.48 196.493 196.493 0 0 0 70.983-86.2 194.923 194.923 0 0 0 11.416-36.776 197.829 197.829 0 0 0 0-78.97 194.848 194.848 0 0 0-29.48-70.056 196.5 196.5 0 0 0-86.2-70.983 194.943 194.943 0 0 0-36.776-11.416 197.379 197.379 0 0 0-39.484-3.982z m17.849 328.584l-37.416-0.569-1.936-172.418h136.64l-1.1 37.4-98.7 1.119 2.512 134.468z"  horiz-adv-x="1024" />

    
    <glyph glyph-name="dubananjian" unicode="&#59287;" d="M560.888 42.41l-24.293-0.091a14.149 14.149 0 0 1 4.516 10.367 42.608 42.608 0 0 1-42.608 42.608H195.154a42.608 42.608 0 0 1-42.608-42.608 14.187 14.187 0 0 1 6.247-11.766l-29.643-0.11a14.2 14.2 0 0 1-14.152-14.259l0.106-28.405a14.2 14.2 0 0 1 14.255-14.15l431.739 1.604a14.2 14.2 0 0 1 14.15 14.251l-0.106 28.405a14.2 14.2 0 0 1-14.254 14.154zM383.9 731.215l215.4-128.771a28.406 28.406 0 0 1 38.956 9.8 28.405 28.405 0 0 1-9.806 38.956L413.052 779.971a28.406 28.406 0 0 1-38.957-9.8 28.406 28.406 0 0 1 9.805-38.956zM187.12 373.701l216-135.173a28.407 28.407 0 0 1 39.148 9.01 28.406 28.406 0 0 1-9.01 39.148l-216 135.173a28.407 28.407 0 0 1-39.148-9.01 28.407 28.407 0 0 1 9.01-39.148zM895.688 259.491L541.475 474.743l34.523 59.947a28.406 28.406 0 0 1-10.443 38.79L390.298 674.394a28.405 28.405 0 0 1-38.79-10.442L250.593 488.697a28.4 28.4 0 0 1 10.442-38.79l175.254-100.913a28.4 28.4 0 0 1 38.79 10.442l38.039 66.06 353.067-214.554a28.405 28.405 0 0 1 39.025 9.523 28.405 28.405 0 0 1-9.522 39.026z"  horiz-adv-x="1024" />

    
    <glyph glyph-name="wodedaiban" unicode="&#59288;" d="M151.433-4.795a30.044 30.044 0 0 0-21.238 8.867 28.183 28.183 0 0 0-6.053 9.122 29.539 29.539 0 0 0-2.177 11.655l2.129 177.45a117.142 117.142 0 0 0-12.093 51.917V654.793a116.739 116.739 0 0 0 9.328 45.9 118.647 118.647 0 0 0 10.93 20.072 119.668 119.668 0 0 0 31.976 31.976 118.6 118.6 0 0 0 20.074 10.931 116.737 116.737 0 0 0 45.897 9.327h517.5a116.737 116.737 0 0 0 45.9-9.328 118.67 118.67 0 0 0 20.074-10.931 119.7 119.7 0 0 0 31.976-31.976 118.647 118.647 0 0 0 10.931-20.074 116.729 116.729 0 0 0 9.328-45.9v-310.733a212.3 212.3 0 0 1-126.161 41.156c-117.971 0-213.948-95.977-213.948-213.949a216.176 216.176 0 0 1 2.907-35.255h-232.48l-123.752-131.54a29.468 29.468 0 0 0-9.99-7.033 28.211 28.211 0 0 0-11.058-2.231z m73.054 431.48a25.076 25.076 0 0 1-24.995-24.766l-0.1-10.44a25 25 0 0 1 24.765-25.233l144.009-1.347h0.238a25.075 25.075 0 0 1 24.997 24.767l0.1 10.44a25.028 25.028 0 0 1-24.765 25.232l-144.007 1.346z m-0.034 194.47a25.046 25.046 0 0 1-25-24.918l-0.034-10.44a25.03 25.03 0 0 1 24.917-25.083l501.19-1.648h0.086a25.044 25.044 0 0 1 25 24.917l0.034 10.441a25.028 25.028 0 0 1-24.917 25.082l-501.191 1.649zM740.66 2.644a172.554 172.554 0 0 0-34.53 3.481 170.409 170.409 0 0 0-61.268 25.781 171.854 171.854 0 0 0-62.077 75.385 170.45 170.45 0 0 0-9.984 32.162 173 173 0 0 0 0 69.062 170.4 170.4 0 0 0 25.781 61.267 171.846 171.846 0 0 0 75.384 62.077 170.515 170.515 0 0 0 32.163 9.983 173 173 0 0 0 69.061 0 170.366 170.366 0 0 0 61.267-25.781 171.836 171.836 0 0 0 62.078-75.385 170.487 170.487 0 0 0 9.983-32.162 173 173 0 0 0 0-69.062 170.366 170.366 0 0 0-25.781-61.267 171.833 171.833 0 0 0-75.385-62.077 170.472 170.472 0 0 0-32.162-9.984 172.573 172.573 0 0 0-34.53-3.48z m-10.938 281.655a30.223 30.223 0 0 1-30.187-29.275l-2.683-85.837a30.264 30.264 0 0 1 12-25.06l64.726-48.875a29.95 29.95 0 0 1 18.187-6.1 30.517 30.517 0 0 1 13.275 3.056 30.224 30.224 0 0 1 4.959 51.283l-39.759 30.024a30.258 30.258 0 0 0-11.994 25.06l1.706 54.565a30.22 30.22 0 0 1-29.263 31.148c-0.34 0.001-0.655 0.011-0.967 0.011z"  horiz-adv-x="1024" />

    
    <glyph glyph-name="zuofei" unicode="&#59272;" d="M679.311 583.07l-2.485-172.708a26.549 26.549 0 0 1 26.164-26.926 26.549 26.549 0 0 1 26.927 26.164l2.8 194.855a26.55 26.55 0 0 1-7.6 18.978L556.284 795.455a26.542 26.542 0 0 1-18.829 7.952L180.667 805a26.548 26.548 0 0 1-26.666-26.548v-788.44a26.548 26.548 0 0 1 26.548-26.549H443.89a26.548 26.548 0 0 1 26.546 26.55 26.549 26.549 0 0 1-26.549 26.548H233.644a26.548 26.548 0 0 0-26.549 26.547v682.01a26.549 26.549 0 0 0 26.667 26.548l281.312-1.256a26.552 26.552 0 0 0 18.828-7.952l137.81-140.412a26.538 26.538 0 0 0 7.599-18.976zM745.766 131.319l116.413 115.818a26.548 26.548 0 0 1 0.1 37.544 26.549 26.549 0 0 1-37.545 0.1L708.222 168.863 582.847 294.238a26.549 26.549 0 0 1-37.546 0 26.55 26.55 0 0 1 0-37.544L670.579 131.41l-122-121.38a26.546 26.546 0 0 1-0.095-37.543 26.548 26.548 0 0 1 37.543-0.1l122.1 121.481 113.414-113.414a26.55 26.55 0 0 1 37.544 0 26.547 26.547 0 0 1 0 37.546z"  horiz-adv-x="1024" />

    
    <glyph glyph-name="xiugai" unicode="&#59273;" d="M788.056 620.285L670.689 724.778a24.027 24.027 0 0 1-33.794-1.824L273.422 319.791a24.337 24.337 0 0 1-6.008-13.41l-15.77-141.29a24.145 24.145 0 0 1 8.261-20.92 23.812 23.812 0 0 1 21.885-4.828l133.137 36.8a23.868 23.868 0 0 1 11.479 7.081l363.473 403.16a23.917 23.917 0 0 1 6.115 17.379 23.579 23.579 0 0 1-7.939 16.522z m-392.546-399.84l-92.263-25.426 10.943 98.486L656.527 673.283l81.535-72.63zM114.001 62.097a23.946 23.946 0 0 1 23.924-23.924h749.045a23.924 23.924 0 0 1 0 47.848H137.925A23.809 23.809 0 0 1 114.001 62.097z"  horiz-adv-x="1024" />

    
    <glyph glyph-name="shenhe" unicode="&#59274;" d="M881.434 762h-737.87A29.564 29.564 0 0 1 114 732.436v-697.074a29.564 29.564 0 0 1 29.564-29.563h737.87a29.564 29.564 0 0 1 29.564 29.563V732.437A29.563 29.563 0 0 1 881.434 762z m-678.743-59.127h619.618a29.564 29.564 0 0 0 29.564-29.564v-85.135H173.127v85.135a29.564 29.564 0 0 0 29.564 29.564z m619.618-637.948H202.691a29.564 29.564 0 0 0-29.564 29.564V529.047h678.746v-434.558a29.564 29.564 0 0 0-29.564-29.564zM746.632 430.902a29.562 29.562 0 0 1-41.8-0.826L505.299 222.51a29.563 29.563 0 0 0-43.384 0.817l-83.277 93.431a29.561 29.561 0 0 1-41.738 2.4 29.56 29.56 0 0 1-2.4-41.739l125.775-141.116a29.565 29.565 0 0 1 43.383-0.817l243.8 253.615a29.565 29.565 0 0 1-0.826 41.8z"  horiz-adv-x="1024" />

    
    <glyph glyph-name="banli" unicode="&#59275;" d="M880.01 829.769L753.625 832.813a31.754 31.754 0 0 1-32.51-30.979 31.756 31.756 0 0 1 30.981-32.511l64.123-1.545a31.754 31.754 0 0 0 30.988-31.889l-3.24-714.68a31.755 31.755 0 0 0-31.755-31.61H209.983A31.755 31.755 0 0 0 178.23 21.71l8.1 718.877a31.754 31.754 0 0 0 31.752 31.4h46.431a31.754 31.754 0 0 1 31.753 31.754 31.754 31.754 0 0 1-31.753 31.754H155.281a31.755 31.755 0 0 1-31.753-31.4L114.003-41.799a31.754 31.754 0 0 1 31.752-32.111h729.681a31.754 31.754 0 0 1 31.754 31.609L911 797.878a31.756 31.756 0 0 1-30.99 31.891zM396.81 776.002l227.984 1.49a31.754 31.754 0 0 1 31.545 31.957A31.753 31.753 0 0 1 624.378 840.995L396.393 839.509a31.753 31.753 0 0 1-31.544-31.96 31.754 31.754 0 0 1 31.961-31.547zM310.85022 372.538897m-35.588684-35.588684a50.33 50.33 0 1 1 71.177369 71.177368 50.33 50.33 0 1 1-71.177369-71.177368ZM461.217 375.076a50.33 50.329 0 1 1 100.66 0 50.33 50.329 0 1 1-100.66 0ZM721.889 323.162a50.33 50.33 0 1 1-50.33 50.329 50.389 50.389 0 0 1 50.33-50.329z"  horiz-adv-x="1024" />

    
    <glyph glyph-name="chaxun" unicode="&#59276;" d="M720.082 732.383h97.2a30.4 30.4 0 0 0 30.393-30.122l1.007-111.791a30.4 30.4 0 1 1 60.791 0.548l-1.549 172.036a30.4 30.4 0 0 1-30.395 30.123H720.082a30.4 30.4 0 0 1-30.4-30.4 30.4 30.4 0 0 1 30.4-30.394zM144.397 563.995a30.4 30.4 0 0 1 30.4 30.4V703.81a30.4 30.4 0 0 0 30.4 30.4h103.938a30.4 30.4 0 0 1 30.4 30.4 30.4 30.4 0 0 1-30.4 30.4H144.397a30.4 30.4 0 0 1-30.4-30.4v-170.218a30.4 30.4 0 0 1 30.4-30.397zM312.506 39.704l-104.887-0.971a30.4 30.4 0 0 0-30.678 30.554l0.6 115.127a30.4 30.4 0 0 1-60.792 0.319l-0.929-176.806a30.4 30.4 0 0 1 30.678-30.556l166.567 1.543a30.4 30.4 0 0 1 30.114 30.677 30.4 30.4 0 0 1-30.673 30.113zM881.177 197.429a30.4 30.4 0 0 1-30.963-29.817l-1.949-103.277a30.4 30.4 0 0 0-30.392-29.822H709.141a30.4 30.4 0 0 1-30.4-30.4 30.4 30.4 0 0 1 30.4-30.4h168.39a30.4 30.4 0 0 1 30.39 29.823l3.074 162.923a30.4 30.4 0 0 1-29.818 30.97zM709.748 170.072a30.4 30.4 0 0 1 0 42.989l-51.845 51.84a30.272 30.272 0 0 1-10.344 6.786 211.8 211.8 0 0 1 48.816 135.464c0 117.32-95.447 212.767-212.768 212.767s-212.768-95.441-212.768-212.762 95.448-212.768 212.769-212.768a211.611 211.611 0 0 1 123.826 39.845 30.256 30.256 0 0 1 7.481-12.315l51.846-51.846a30.4 30.4 0 0 1 42.987 0z m-226.14 85.109c-83.8 0-151.975 68.175-151.975 151.975s68.176 151.973 151.975 151.973 151.973-68.174 151.973-151.973-68.174-151.975-151.973-151.975z"  horiz-adv-x="1024" />

    
    <glyph glyph-name="dayin" unicode="&#59277;" d="M883.853 624.787H734.962a27.461 27.461 0 0 1 0.444 4.572l1.317 114.555a27.148 27.148 0 0 1-27.032 27.459l-386.011 1.629a27.145 27.145 0 0 1-27.254-26.55l-2.661-121.076v-0.589H141.148A27.148 27.148 0 0 1 114 597.64v-447.9a27.148 27.148 0 0 1 27.148-27.153h158.528v-99.894a27.147 27.147 0 0 1 27.147-27.146h425.1a27.146 27.146 0 0 1 27.146 27.147v99.893h104.784A27.147 27.147 0 0 1 911 149.734v447.9a27.147 27.147 0 0 1-27.147 27.153z m-534.32 67.145a27.146 27.146 0 0 0 27.255 26.55l277.983-1.173a27.146 27.146 0 0 0 27.031-27.458l-0.688-59.869a27.258 27.258 0 0 1 0.441-5.2h-333.5z m375.244-614.945a27.146 27.146 0 0 0-27.144-27.146H381.117a27.147 27.147 0 0 0-27.147 27.146v45.6h370.807z m0 99.895H353.97v65.146a27.147 27.147 0 0 0 27.147 27.147h316.516a27.146 27.146 0 0 0 27.146-27.147z m131.929 27.147a27.147 27.147 0 0 0-27.147-27.142h-50.488V296.322a27.146 27.146 0 0 1-27.146 27.147H326.823a27.148 27.148 0 0 1-27.147-27.147v-119.435H195.441a27.147 27.147 0 0 0-27.147 27.147v339.31a27.148 27.148 0 0 0 27.147 27.143h634.118a27.147 27.147 0 0 0 27.147-27.147zM341.482 525.432a72.752 72.752 0 1 1 72.752-72.752 72.833 72.833 0 0 1-72.752 72.752z m0-91.209a18.458 18.458 0 1 0 18.457 18.458 18.478 18.478 0 0 0-18.457-18.458z"  horiz-adv-x="1024" />

    
    <glyph glyph-name="xinzeng" unicode="&#59278;" d="M874.606 414.569l-343.169 1.889-0.9 309.053a36.6 36.6 0 0 1-36.7 36.488 36.6 36.6 0 0 1-36.488-36.7l0.9-308.435-307.45 1.694a36.6 36.6 0 0 1-36.8-36.393 36.6 36.6 0 0 1 36.393-36.8l308.065-1.7 0.874-300.463a36.593 36.593 0 0 1 36.7-36.487 36.6 36.6 0 0 1 36.49 36.7l-0.872 299.846 342.552-1.887a36.6 36.6 0 0 1 36.8 36.393 36.6 36.6 0 0 1-36.395 36.802z"  horiz-adv-x="1024" />

    
    <glyph glyph-name="daochu" unicode="&#59279;" d="M698.618 335.938L536.183 465.884a29.432 29.432 0 0 1-36.936-0.133L343.747 339.5a29.43 29.43 0 0 1-4.3-41.4 29.432 29.432 0 0 1 41.4-4.3l107.765 87.493 1.4-352.612c0.067-16.841 13.3-30.438 29.553-30.369 16.256 0.069 29.38 13.778 29.313 30.619l-1.4 352.536 114.371-91.5a29.432 29.432 0 0 1 41.37 4.6 29.432 29.432 0 0 1-4.601 41.371zM879.671 525.624a398.544 398.544 0 1 1-685.02-395.475 29.483 29.483 0 0 1 43.145-4.32 29.375 29.375 0 0 1 3.945 39.644 339.05 339.05 0 0 0-68.876 205.026c0 187.275 152.359 339.635 339.634 339.635S852.134 557.775 852.134 370.5a339.052 339.052 0 0 0-68.877-205.026 29.374 29.374 0 0 1 3.946-39.644 29.485 29.485 0 0 1 43.145 4.321 398.932 398.932 0 0 1 49.322 395.476z"  horiz-adv-x="1024" />

    
    <glyph glyph-name="liucheng" unicode="&#59280;" d="M751.438 304.707a158.6 158.6 0 0 1-82.952-23.305l-127.94 71.7 0.574 117.155c74.908 13.083 132.031 78.582 132.031 157.179 0 87.982-71.58 159.562-159.563 159.562s-159.562-71.578-159.562-159.56c0-78.51 57-143.954 131.784-157.138l-0.565-115.3-130.529-74.369 1.754-3.078a158.6 158.6 0 0 1-82.908 23.278C185.58 300.831 114 229.251 114 141.268s71.58-159.564 159.562-159.564 159.564 71.585 159.564 159.564a158.789 158.789 0 0 1-35.463 100.174l113.55 64.7 113.794-63.775a158.754 158.754 0 0 1-33.131-97.221c0-87.983 71.58-159.563 159.563-159.563s159.562 71.58 159.562 159.563-71.581 159.561-159.563 159.561z m-342.1 322.731a104.253 104.253 0 1 0 104.25-104.249 104.371 104.371 0 0 0-104.253 104.249zM273.562 37.014a104.253 104.253 0 1 0 104.253 104.254 104.372 104.372 0 0 0-104.253-104.254z m477.876 3.875A104.253 104.253 0 1 0 855.69 145.143a104.371 104.371 0 0 0-104.252-104.254z"  horiz-adv-x="1024" />

    
    <glyph glyph-name="chouquyangben" unicode="&#59281;" d="M876.734 701.054A27.181 27.181 0 0 1 850.092 728.1l-122.843 2.433a27.18 27.18 0 0 1-1.076-54.349l69.816-1.383a27.18 27.18 0 0 0 26.641-27.046l2.754-582.133a27.18 27.18 0 0 0-27.18-27.308H225.667a27.18 27.18 0 0 0-27.18 27.244l1.373 585.271a27.181 27.181 0 0 0 27.526 27.114l69.146-0.879a27.18 27.18 0 0 1 27.522 26.833 27.181 27.181 0 0 1-26.832 27.524L173.155 732.996A27.18 27.18 0 0 1 145.634 705.883L144.003 11.199a27.179 27.179 0 0 1 27.179-27.244h681.64a27.18 27.18 0 0 1 27.18 27.308zM351.025 140.972m25 0l272.345 0q25 0 25-25l0-4.36q0-25-25-25l-272.345 0q-25 0-25 25l0 4.36q0 25 25 25ZM350.709 784m22.777 0l8.806 0q22.777 0 22.777-22.777l0-114.653q0-22.777-22.777-22.777l-8.806 0q-22.777 0-22.777 22.777l0 114.653q0 22.777 22.777 22.777ZM431.612 731.077m22.777 0l115.621 0q22.777 0 22.777-22.777l0-8.806q0-22.777-22.777-22.777l-115.621 0q-22.777 0-22.777 22.777l0 8.806q0 22.777 22.777 22.777ZM619.65 784m22.777 0l8.806 0q22.777 0 22.777-22.777l0-114.653q0-22.777-22.777-22.777l-8.806 0q-22.777 0-22.777 22.777l0 114.653q0 22.777 22.777 22.777ZM512.788 174.393a27.179 27.179 0 0 1 27.247 27.112l0.587 235.046 82.984-77.707a27.18 27.18 0 0 1 38.417 1.261 27.179 27.179 0 0 1-1.261 38.417L531.367 519.693a27.181 27.181 0 0 1-37.166-0.01L363.214 396.894a27.18 27.18 0 0 1 37.177-39.659l85.874 80.5-0.589-236.095a27.18 27.18 0 0 1 27.112-27.247z"  horiz-adv-x="1024" />

    
    <glyph glyph-name="shanchu" unicode="&#59282;" d="M886.275 675.886H693.104c0.063 0.829 0.1 1.668 0.1 2.517V740.035c0 16-11.375 28.965-25.406 28.965H346.731c-13.863 0-25.166-12.671-25.4-28.473l-0.962-64.641H138.726A24.726 24.726 0 0 1 114 651.161v-3.16a24.725 24.725 0 0 1 24.726-24.725h89.353l-1.5-600.2a24.725 24.725 0 0 1 24.88-24.786l505.049 3.177a24.724 24.724 0 0 1 24.564 24.919l-4.557 593.94a25.047 25.047 0 0 1-0.2 2.952h109.96A24.725 24.725 0 0 1 911 648.003v3.16a24.726 24.726 0 0 1-24.725 24.723z m-511.792 3.007c0.236 15.8 11.539 28.474 25.4 28.474h213.859c14.031 0 25.405-12.968 25.405-28.965 0-0.849 0.039-1.688 0.1-2.517H374.439zM728.06 78.661a24.725 24.725 0 0 0-24.569-24.914l-399.294-2.511a24.725 24.725 0 0 0-24.88 24.786l1.372 547.254h443.424a24.939 24.939 0 0 1-0.206-3.355zM346.615 511.862m23.498 0l5.614 0q23.498 0 23.498-23.498l0-324.045q0-23.498-23.498-23.498l-5.614 0q-23.498 0-23.498 23.498l0 324.045q0 23.498 23.498 23.498ZM511.791 512.256l-3.16 0.011a24.726 24.726 0 0 1-24.805-24.646l-1.039-321.99a24.724 24.724 0 0 1 24.645-24.8l3.159-0.01a24.726 24.726 0 0 1 24.805 24.644l1.04 321.985a24.725 24.725 0 0 1-24.645 24.806zM620.395 512.261m23.498 0l5.614 0q23.498 0 23.498-23.498l0-324.443q0-23.498-23.498-23.498l-5.614 0q-23.498 0-23.498 23.498l0 324.443q0 23.498 23.498 23.498Z"  horiz-adv-x="1024" />

    
    <glyph glyph-name="dingwei-xuanzhong" unicode="&#59256;" d="M736.921 697.021A317.449 317.449 0 0 1 195 472.545c0-221.616 234.7-493.815 317.448-493.815 78.344 0 317.455 270.013 317.455 493.815a317.458 317.458 0 0 1-92.982 224.476zM512.448 366.732a105.817 105.817 0 1 0 105.82 105.813 105.814 105.814 0 0 0-105.82-105.813z"  horiz-adv-x="1024" />

    
    <glyph glyph-name="sheshi" unicode="&#59257;" d="M868.186 591.67L521.575 785.229a8.151 8.151 0 0 0-1.283 0.929c-4.675 3.962-13.319 3.782-21.964-0.54L151.021 591.67C142 587.156 142 578.136 142 573.626v-369.858c0-9.021 4.51-18.041 13.53-22.551l342.443-198.256c0.237-0.137 0.48-0.269 0.726-0.389 8.52-4.144 16.985-4.263 21.593-0.357a8.592 8.592 0 0 0 1.279 0.936l346.615 198.066c9.021 4.51 13.531 13.53 13.531 22.551V573.626c0 4.51-4.51 13.53-13.531 18.044z m-41.528-368.767L526.983 50.99a10.1 10.1 0 0 0-15.125 8.76V369.319a10.1 10.1 0 0 0 5.074 8.76l299.675 171.906a10.1 10.1 0 0 0 15.124-8.76v-309.562a10.1 10.1 0 0 0-5.073-8.76z m-48.681 16.949"  horiz-adv-x="1024" />

    
    <glyph glyph-name="zongrenshu" unicode="&#59258;" d="M926.545 155.733a231.689 231.689 0 0 1-145.711 215.254 154.471 154.471 0 0 1-50.3 278.73 2.97 2.97 0 0 1-1.777-0.147c-0.789 0.049-1.53 0.245-2.319 0.245a26.407 26.407 0 0 1-4.1-52.469 48.909 48.909 0 0 1 5.281-1.627 100.2 100.2 0 0 0-14.065-193.486l-0.2-0.151a29.615 29.615 0 0 1 0.691-59.18c0.1-0.049 0.2-0.248 0.346-0.248 93.682-9.525 160.071-89.536 160.071-186.921a26.013 26.013 0 0 1 51.976-0.988l0.1 0.346zM97 152.972l0.1-0.345a26.013 26.013 0 0 1 51.976 0.988c0 97.385 66.389 177.4 160.071 186.92 0.147 0 0.248 0.2 0.345 0.249a29.615 29.615 0 0 1 0.692 59.18l-0.2 0.15a100.2 100.2 0 0 0-14.065 193.487 48.9 48.9 0 0 1 5.281 1.627 26.408 26.408 0 0 1-4.1 52.469c-0.79 0-1.53-0.2-2.319-0.246a2.974 2.974 0 0 1-1.778 0.148 154.472 154.472 0 0 1-50.3-278.731A231.688 231.688 0 0 1 97 153.615z m517.545 213.673a184.646 184.646 0 0 1 81.887 153.6c0.109 101.906-82.4 184.613-184.308 184.751-101.907-0.138-184.415-82.845-184.305-184.751a184.7 184.7 0 0 1 81.887-153.6 277.306 277.306 0 0 1-174.191-257.557c0-6.563 0.4-13.031 0.888-19.5a25.716 25.716 0 1 1 51.433 0c0 0.789-0.2 1.529-0.248 2.319q-0.867 8.564-0.985 17.177c0 124.879 100.988 226.063 225.519 226.063a225.717 225.717 0 0 0 225.472-226.059c0-6.021-0.492-11.945-0.988-17.819 0.447-15.5 11.7-26.654 25.619-26.654a25.666 25.666 0 0 1 25.62 24.977c0.495 6.416 0.841 12.933 0.841 19.5a277.3 277.3 0 0 1-174.095 257.553z m-102.423 20.876a132.579 132.579 0 0 0-132.377 132.728c0 73.3 59.229 132.677 132.378 132.677a132.528 132.528 0 0 0 132.38-132.677c0-73.3-59.279-132.777-132.381-132.777z m0 0"  horiz-adv-x="1024" />

    
    <glyph glyph-name="renyuanzaigang-weixuanzhong" unicode="&#59259;" d="M680.453 388.629c113.871-56.172 195.731-166.766 211.649-292.688a79.415 79.415 0 0 0 0.586-9.594c0-46.519-38.973-83.093-87.071-83.035H214.911c-45.875 1.465-82.914 37.86-82.914 83.094a82.565 82.565 0 0 0 0.527 9.008c13.692 128.031 96.2 238.039 214.1 294.328-41.016 42.129-64.949 94.734-64.949 152.43C281.675 668.445 384.075 764 512.69 764c126.567 0 231.071-99.766 231.071-221.887 0-60.094-22.235-112.816-63.313-153.484z m-66.355-35.807a29.259 29.259 0 0 0-6.434 52.43c50.906 32.355 77.59 79.344 77.59 136.863 0 89.176-77.766 163.371-172.559 163.371-97.2 0-172.5-70.273-172.5-163.371 0-53.48 29.137-102.1 78.875-137.742a29.258 29.258 0 0 0-7.722-51.551c-121.008-40.433-207.727-142.891-220.6-263.316-0.125-1.047-0.2-2.1-0.234-3.157 0-12.933 11.293-24.05 25.863-24.46h589.3c16.558 0 28.5 11.117 28.5 24.46a16.9 16.9 0 0 1-0.117 2.4c-15.337 120.36-102.755 224.927-219.962 264.073z m0 0"  horiz-adv-x="1024" />

    
    <glyph glyph-name="guanbi" unicode="&#59260;" d="M568.777 384.461l300.239 300.238a39.309 39.309 0 0 1 0 55.3l-1.637 1.637a39.309 39.309 0 0 1-55.3 0L511.844 440.988 211.609 741.632a39.309 39.309 0 0 1-55.3 0l-1.64-1.637a38.582 38.582 0 0 1 0-55.3L454.91 384.461 154.672 84.232a39.316 39.316 0 0 1 0-55.3l1.64-1.637a39.309 39.309 0 0 1 55.3 0l300.232 300.237 300.238-300.239a39.309 39.309 0 0 1 55.3 0l1.637 1.637a39.309 39.309 0 0 1 0 55.3z m0 0"  horiz-adv-x="1024" />

    
    <glyph glyph-name="pianqu" unicode="&#59261;" d="M137.207 667.994l166.545 101a27.757 27.757 0 0 0 42.121-23.874v-613.125a28.085 28.085 0 0 0-13.393-23.878l-166.353-99.446a27.952 27.952 0 0 0-38.111 9.575 27.1 27.1 0 0 0-4.01 14.3v611.9a27.357 27.357 0 0 0 12.94 23.875z m554.763 0l166.349 101a27.759 27.759 0 0 0 42.125-23.874v-613.125a28.09 28.09 0 0 0-13.4-23.878l-166.217-99.705a27.951 27.951 0 0 0-38.111 9.576 27.1 27.1 0 0 0-4.013 14.3v611.9a28.078 28.078 0 0 0 13.4 23.875z m-248.654 69.554l166.544-99.642a28.083 28.083 0 0 0 13.4-23.874v-589.768a27.7 27.7 0 0 0-27.889-27.63 26.507 26.507 0 0 0-14.3 4.014L414.716 101.197a27.818 27.818 0 0 0-13.389 23.874v588.8a27.889 27.889 0 0 0 41.929 23.874z m0 0"  horiz-adv-x="1024" />

    
    <glyph glyph-name="cheliang" unicode="&#59262;" d="M230.161 145.607H128.686A21.633 21.633 0 0 0 107 167.293V345.844a23.7 23.7 0 0 0 0.45 4.337l54.76 269.367a21.66 21.66 0 0 0 21.147 17.349l155.057 0.723v35.695A21.634 21.634 0 0 0 360.099 695h534.94a21.633 21.633 0 0 0 21.69-21.685v-506.022a21.633 21.633 0 0 0-21.686-21.686h-72.655a94.6 94.6 0 0 1 0.274 7.227 108.434 108.434 0 0 1-216.867 0c0-2.44 0.089-4.879 0.269-7.227H446.486a95.12 95.12 0 0 1 0.273 7.227 108.434 108.434 0 0 1-216.867 0c0-2.44 0.088-4.879 0.269-7.227z m92.982 404.815h-91.447a14.531 14.531 0 0 1-14.267-12.106l-26.933-166.537a18.585 18.585 0 0 1-0.181-2.347v-10.21a11.391 11.391 0 0 1 11.383-11.384h121.537a14.5 14.5 0 0 1 14.455 14.458V535.964a14.577 14.577 0 0 1-14.547 14.458z m391.174-476.923a79.516 79.516 0 1 0 79.512 79.516 79.518 79.518 0 0 0-79.515-79.516z m-376.715 0a79.516 79.516 0 1 0 79.516 79.516 79.517 79.517 0 0 0-79.516-79.516z m0 0"  horiz-adv-x="1024" />

    
    <glyph glyph-name="cheliangzuoye-weixuanzhong" unicode="&#59263;" d="M881.092 386.142L771.863 582.486a32.36 32.36 0 0 1-28.117 16.475H612.215v71.731a32.531 32.531 0 0 1-9.465 22.847A32.091 32.091 0 0 1 579.906 703H170.307a32.3 32.3 0 0 1-32.309-32.308v-491.52a32.344 32.344 0 0 1 32.309-32.304h54.677a114.228 114.228 0 0 1 218.321 0h136.669a114.224 114.224 0 0 1 218.316 0h54.683a32.307 32.307 0 0 1 32.308 32.3V370.336a32.376 32.376 0 0 1-4.189 15.806z m-317.338-22.773a32.308 32.308 0 0 1 48.461 27.979v143h112.483l95.97-172.427v-150.44H798.29a114.225 114.225 0 0 1-218.316 0H443.307a114.228 114.228 0 0 1-218.321 0h-22.373V638.387h344.989v-247.039a32.389 32.389 0 0 1 16.152-27.979z m-179.992-184.2a49.689 49.689 0 1 0-30.629 45.839 49.67 49.67 0 0 0 30.629-45.836z m354.984 0a49.685 49.685 0 1 0-30.628 45.839 49.669 49.669 0 0 0 30.628-45.836z"  horiz-adv-x="1024" />

    
    <glyph glyph-name="renyuan" unicode="&#59264;" d="M333.434 542.809c-1.075 80.812 9.832 141.16 85.3 181.882 15.446 8.344 52.036 12.731 69.512 12.731 19.133 1.961 0.172 17.578 42.41 17.578s100.949-18.6 129.024-76.187c28.058-57.583 30.429-120.778 30.429-135.934 0-15.137 15.516-7.563 15.516-30.293s-6.691-67.688-30.48-98.238c-23.809-30.547-31.559-38.125-47.071-60.86-15.5-22.715-23.246-47.5-23.246-68.164 0-75.773 129.606-81.355 204.734-129.2q44.468-28.336 62.4-73.438a51.2 51.2 0 0 0-47.6-70.089H199.207a51.2 51.2 0 0 0-47.566 70.16q17.97 45.053 62.175 73.367c74.7 47.84 204.918 53.422 204.918 129.2 0 20.176-7.75 45.449-23.261 68.164-15.516 22.735-23.262 30.313-46.524 60.86s-31.011 75.5-31.011 98.238 15.5 15.156 15.5 30.207z m0 0"  horiz-adv-x="1024" />

    
    <glyph glyph-name="guiji" unicode="&#59265;" d="M810.598-25.24H260.004a29.454 29.454 0 0 0-29.453 29.512c0 16.234 19.027 25.117 35.261 25.117h546.126c18.992 0 32.246 17.742 32.246 33.063s-13.254 39.75-32.246 39.75H212.023c-50.511 0-91.023 27.648-91.023 76.632 0 48.969 41.871 87.676 92.363 87.676h68.387a29.492 29.492 0 0 0 0-58.984h-68.387c-18.968 0-33.472-13.367-33.472-28.692s13.144-22 32.132-22h599.915c50.511 0 91.023-45.411 91.023-94.379s-41.871-87.692-92.363-87.692zM621.156 291.288a49.215 49.215 0 0 0-4.375-5.418c-36.23-44.254-72.7-74.1-74.32-75.364l-25.414-20.613-25.547 20.5a568.945 568.945 0 0 0-74.414 75.145 36.532 36.532 0 0 0-4.375 5.285c-42.563 55.761-115.266 143.23-130.906 234.7a245.64 245.64 0 0 0-2.754 31.351c-0.465 64.289 24.836 124.555 71.547 169.723a239.661 239.661 0 0 0 333.246 0c46.23-44.832 71.441-104.855 70.972-168.7 0-1.379-0.109-13.125-2.882-32.6-14.6-85.492-79.015-165.922-130.778-234.011zM516.82 727.519c-98.023 0-178.3-79.723-177.39-177.9a178.112 178.112 0 0 1 2.2-23.625c11.73-68.555 67.063-135.95 111.469-193.8a6.925 6.925 0 0 1 1.375-1.731 465.374 465.374 0 0 1 62.465-63.379 489.76 489.76 0 0 1 62.464 63.711 8.261 8.261 0 0 1 1.375 1.735c44.407 58.2 99.739 125.242 111.47 194.035a179.416 179.416 0 0 1 2.179 23.629c0.687 98.152-79.594 177.32-177.6 177.32z m0-295.769c-59.242 0-107.554 47.121-107.554 105.191s48.312 105.2 107.554 105.2 107.557-47.135 107.557-105.205-48.311-105.191-107.557-105.191z m0 158.644a53.994 53.994 0 1 1 38.2-15.887 54 54 0 0 1-38.2 15.887z m0 0"  horiz-adv-x="1024" />

    
    <glyph glyph-name="renyuanzaigang-xuanzhong" unicode="&#59266;" d="M680.453 389.629c113.871-56.172 195.731-166.766 211.649-292.688a79.4 79.4 0 0 0 0.586-9.594c0-46.519-38.973-83.093-87.071-83.035H214.914C169.039 5.777 132 42.172 132 87.406a82.563 82.563 0 0 0 0.527 9.008c13.692 128.031 96.2 238.039 214.1 294.328-41.016 42.129-64.949 94.734-64.949 152.43 0 126.273 102.4 221.828 231.015 221.828 126.567 0 231.071-99.766 231.071-221.887 0-60.094-22.235-112.816-63.313-153.484z m-66.355-35.809"  horiz-adv-x="1024" />

    
    <glyph glyph-name="dingwei-weixuanzhong" unicode="&#59267;" d="M512.119-20.03c-61.752 0-320.122 246.522-320.122 488.909 0 176.8 143.321 320.121 320.119 320.121s320.122-143.321 320.122-320.121c0-242.389-258.363-488.909-320.119-488.909z m0 750.677c-144.654 0-261.914-117.261-261.914-261.915 0-182.848 193.669-407.427 261.914-407.427 64.636 0 261.919 222.776 261.919 407.427a261.918 261.918 0 0 1-261.919 261.915z m0-343.254a87.317 87.317 0 1 0 61.734 25.575 87.3 87.3 0 0 0-61.734-25.576z m0 0"  horiz-adv-x="1024" />

    
    <glyph glyph-name="zongsheshishu" unicode="&#59268;" d="M869.316 740H153.883C125.211 740 102 716.789 102 689.484v-610.3a51.86 51.86 0 0 1 51.883-51.883h715.433a51.86 51.86 0 0 1 51.883 51.883v610.3c0 27.3-23.211 50.516-51.883 50.516zM174.971 471.031h671.89a25.186 25.186 0 0 0 25.186-25.186v-123.026a25.186 25.186 0 0 0-25.186-25.186h-671.89a25.186 25.186 0 0 0-25.186 25.186V445.845a25.186 25.186 0 0 0 25.186 25.186z m699.122 196.055l-0.566-124.735a25.016 25.016 0 0 0-25.015-24.9H174.8a25.016 25.016 0 0 0-25.015 25.013V667.2a25.016 25.016 0 0 0 25.015 25.015h674.278a25.015 25.015 0 0 0 25.015-25.129z m-724.308-566.21V222.685a25.8 25.8 0 0 0 25.794 25.795h670.673a25.8 25.8 0 0 0 25.8-25.795v-121.809a25.8 25.8 0 0 0-25.8-25.794H175.579a25.8 25.8 0 0 0-25.794 25.794zM634.466 629h60.074a23.892 23.892 0 0 0 23.892-23.892 23.892 23.892 0 0 0-23.892-23.893h-60.074a23.892 23.892 0 0 0-23.892 23.892A23.892 23.892 0 0 0 634.466 629z m0-443.73h60.074a23.892 23.892 0 0 0 23.892-23.892v-0.005a23.892 23.892 0 0 0-23.892-23.892h-60.074a23.892 23.892 0 0 0-23.892 23.892v0.005a23.892 23.892 0 0 0 23.892 23.892z m0 222.547h60.074a23.892 23.892 0 0 0 23.892-23.892 23.892 23.892 0 0 0-23.892-23.894h-60.074a23.892 23.892 0 0 0-23.892 23.892 23.892 23.892 0 0 0 23.892 23.894z m-23.892 0"  horiz-adv-x="1024" />

    
    <glyph glyph-name="cheliangzuoye-xuanzhong" unicode="&#59269;" d="M881.092 385.142l-109.23 196.343a32.36 32.36 0 0 1-28.122 16.48H612.215v71.73a32.534 32.534 0 0 1-9.465 22.848 32.093 32.093 0 0 1-22.845 9.461h-409.6a32.3 32.3 0 0 1-32.309-32.309v-491.523a32.343 32.343 0 0 1 32.313-32.307h54.677a114.228 114.228 0 0 1 218.321 0h136.667a114.224 114.224 0 0 1 218.316 0h54.683a32.307 32.307 0 0 1 32.307 32.3V369.336a32.368 32.368 0 0 1-4.188 15.806z m-497.33-206.97a49.689 49.689 0 1 0-30.629 45.838 49.67 49.67 0 0 0 30.629-45.838z m354.983 0a49.685 49.685 0 1 0-30.628 45.838 49.669 49.669 0 0 0 30.623-45.838z"  horiz-adv-x="1024" />

    
    <glyph glyph-name="zongcheshu" unicode="&#59270;" d="M850.477 672.997H455.613a70.718 70.718 0 0 1-70.722-70.723v-58.933H258.18A156.358 156.358 0 0 1 102 387.159v-162.07a23.574 23.574 0 0 1 23.574-23.574h65.125c0-1.946-0.3-3.891-0.3-5.895a100.19 100.19 0 0 1 200.379 0v5.895h242.229v-5.895a100.19 100.19 0 0 1 200.379 0v5.895h17.679a70.724 70.724 0 0 1 70.723 70.722V602.274a70.721 70.721 0 0 1-71.312 70.723zM290.594 142.583a53.041 53.041 0 1 0 53.039 53.039 53.039 53.039 0 0 0-53.039-53.039z m94.3 106.082h-9.43a100.193 100.193 0 0 1-169.734 0h-56.582v94.294h235.743z m0 141.445H149.148A109.03 109.03 0 0 0 258 496.192h126.891z m347.713-247.527a53.04 53.04 0 1 0 53.043 53.039 53.04 53.04 0 0 0-53.043-53.039z m141.444 129.656a23.575 23.575 0 0 0-23.574-23.574h-33a100.19 100.19 0 0 1-169.731 0h-215.7V602.274a23.575 23.575 0 0 0 23.574 23.575h394.857a23.575 23.575 0 0 0 23.574-23.575z m0 0"  horiz-adv-x="1024" />

    
    <glyph glyph-name="biaoduan1" unicode="&#59271;" d="M378.062 590.777l107.714 174.948a30 30 0 0 0 50.643 0.708l114.815-175.308a30 30 0 0 0-14.985-44.681l-110.762-39.656a30 30 0 0 0-20.224 0l-111.767 40.017a30 30 0 0 0-15.434 43.972zM212.354 283.266l292.957-102.579a30 30 0 0 1 20.1 0.1l283.565 102.322a30 30 0 0 0 35.587-12.261l62.37-99.285a30 30 0 0 0-14.892-44.057L525.771-9.52a30 30 0 0 0-20.817-0.076l-373.247 136.51a30 30 0 0 0-15.362 43.711l60.428 99.863a30 30 0 0 0 35.581 12.778z m-22.977 8.046M504.424 222.16L252.478 322.609a30 30 0 0 0-14.449 43.575l83 135.049a30 30 0 0 0 35.091 12.737l149.373-50.056a30 30 0 0 1 19.694 0.219l137.032 49.331a30 30 0 0 0 35.376-11.971l89.986-139.585a30 30 0 0 0-14.377-44.229l-246.832-95.626a30 30 0 0 0-21.948 0.107zM280.64 332.292l223.819-88.882a30 30 0 0 1 21.877-0.106l217.9 84.116a30 30 0 0 1 14.462 44.163l-68.871 107.57a30 30 0 0 1-35.409 12.057l-129.239-46.433a30 30 0 0 0-19.678-0.211l-140.705 47.159a30 30 0 0 1-35.073-12.7l-63.55-103.11a30 30 0 0 1 14.467-43.623z m-33.222 13.193"  horiz-adv-x="1024" />

    
    <glyph glyph-name="guanlirenyuanzhengchangzaigang" unicode="&#59246;" d="M502.232 793.79c192.176 0 347.516-158.2 347.516-352.792 0-130.666-104.4-277.87-307.858-450.341a61.327 61.327 0 0 0-79.316 0C259.113 163.128 154.714 310.331 154.714 440.998 154.714 635.608 310.054 793.79 502.232 793.79zM493.285 451.376m-306.63 0a306.63 306.63 0 1 1 613.26 0 306.63 306.63 0 1 1-613.26 0ZM511.098 666.005c33.621-3.364 60.521-13.449 80.687-43.706 10.089-16.811 13.449-36.982 10.089-57.152v-6.725c0-3.363 0-3.363 3.36-6.723 10.085-0.002 10.085-3.364 10.085-13.452s-3.36-20.174-6.723-33.619c-3.363-6.725-6.723-13.449-16.812-13.449-3.36 0-3.36-3.363-6.723-6.725-6.723-36.982-30.257-60.516-57.154-77.325-13.449-6.725-26.9-3.363-40.345 3.36-23.534 13.449-36.983 33.623-47.068 60.517 0 3.363-3.363 10.088-3.363 13.448a7.23 7.23 0 0 1-6.723 6.725c-6.726 0-10.085 6.723-13.448 13.449 0 10.086-3.363 23.534-3.363 33.619s3.365 13.45 10.087 16.811c3.363 0 3.363 3.363 3.363 6.725 0 16.808 0 30.257 3.363 47.068 6.723 26.9 20.171 40.346 43.705 43.706h6.726c3.36 0 10.086 0 10.086 6.725s6.723 6.723 13.448 6.723zM554.804 289.457c3.36 6.726 3.36 13.449 6.723 20.175 6.723 20.171 13.449 43.7 20.171 63.876 0 3.363 3.362 6.726 6.725 3.363 16.809-6.723 36.982-13.448 53.791-20.172 13.449-6.725 26.9-16.811 36.983-33.62 3.362-6.725 3.362-16.809 3.362-23.534v-16.811c0-13.448-10.085-23.534-23.534-23.534H369.892c-10.086 0-20.171 3.363-23.534 13.448v3.363c0 13.445 0 26.895 3.363 40.342 6.723 20.175 20.171 33.62 36.982 40.345s36.98 13.449 53.792 23.535a7.23 7.23 0 0 0 6.722-6.726c10.088-26.895 16.811-53.792 26.9-80.689v-3.362a3.293 3.293 0 0 1 3.363 3.362l20.171 40.346c3.363 3.363 0 6.723 0 6.723-6.723 6.725-13.449 16.811-13.449 26.9a18.493 18.493 0 0 0 10.088 16.811q20.169 10.085 40.342 0c10.086-3.362 10.086-10.088 10.086-23.534 0-10.088-6.723-16.812-13.449-23.534-3.361-3.363-3.361-3.363 0-6.726 6.725-13.449 13.449-26.9 23.536-40.346z"  horiz-adv-x="1024" />

    
    <glyph glyph-name="huanweirenyuanbuzaigang" unicode="&#59247;" d="M502.232 791.945c192.176 0 347.516-158.2 347.516-352.792 0-130.666-104.4-277.87-307.858-450.341a61.328 61.328 0 0 0-79.316 0C259.113 161.283 154.714 308.487 154.714 439.153 154.714 633.763 310.054 791.945 502.232 791.945zM496.479 436.755m-293.854 0a293.854 293.854 0 1 1 587.708 0 293.854 293.854 0 1 1-587.708 0ZM670.124 315.165v-11.936c0-24.709-64.754-45.871-64.754-45.871l-26.98 3.43s-43.147 5.4-70.151 5.4c-26.962 0-70.149-5.4-70.149-5.4l-26.783-3.35s-64.949 21.173-64.949 45.791V315.165c0 22.966 29.935 46.143 65.022 63.915 1.7 0.859 22.783-118.535 22.783-118.535l9.326 0.243s-18.018 123.272-16.189 124.111c9.712 4.441 16.1 8.605 25.656 12.05 3.544 1.292 20.486 10.492 11.007 35.269-21.95 22.377-36.9 60.355-36.9 109.24h162.869c0-48.378-15.336-86.558-37.141-108.964h0.125c-9.268-28.11 5.557-34.774 7.915-35.538 9.454-3.127 18.866-8.012 28.352-12.057 2.35-1-16.188-124.111-16.188-124.111l9.853 0.265s20.1 119 22.154 118c35.618-17.437 65.123-40.45 65.123-63.884zM601.082 576.646c0 56.18-76.5 84.265-76.5 84.265-10.834 4.88-21.59 3.77-32.672 0 0 0-76.507-24.661-76.507-84.265 0-5.989-7.3-7.089-13.72-15.721a12.177 12.177 0 0 1 9.744-19.465h191.738a12.185 12.185 0 0 1 9.738 19.49c-6.469 8.69-11.821 9.693-11.821 15.7z"  horiz-adv-x="1024" />

    
    <glyph glyph-name="huanweirenyuanyichangzaigang" unicode="&#59248;" d="M502.232 794.236c192.176 0 347.516-158.2 347.516-352.792 0-130.666-104.4-277.87-307.858-450.341a61.328 61.328 0 0 0-79.316 0C259.113 163.574 154.714 310.778 154.714 441.444 154.714 636.054 310.054 794.236 502.232 794.236zM499.673 439.046m-293.854 0a293.854 293.854 0 1 1 587.708 0 293.854 293.854 0 1 1-587.708 0ZM670.124 317.456v-11.936c0-24.709-64.754-45.871-64.754-45.871l-26.98 3.43s-43.147 5.4-70.151 5.4c-26.962 0-70.149-5.4-70.149-5.4l-26.783-3.35s-64.949 21.173-64.949 45.791V317.456c0 22.966 29.935 46.143 65.022 63.915 1.7 0.859 22.783-118.535 22.783-118.535l9.326 0.243s-18.018 123.272-16.189 124.111c9.712 4.441 16.1 8.605 25.656 12.05 3.544 1.292 20.486 10.492 11.007 35.269-21.95 22.377-36.9 60.355-36.9 109.24h162.869c0-48.378-15.336-86.558-37.141-108.964h0.125c-9.268-28.11 5.557-34.774 7.915-35.538 9.454-3.127 18.866-8.012 28.352-12.057 2.35-1-16.188-124.111-16.188-124.111l9.853 0.265s20.1 119 22.154 118c35.618-17.437 65.123-40.45 65.123-63.884zM601.082 578.937c0 56.18-76.5 84.265-76.5 84.265-10.834 4.88-21.59 3.77-32.672 0 0 0-76.507-24.661-76.507-84.265 0-5.989-7.3-7.089-13.72-15.721a12.177 12.177 0 0 1 9.744-19.465h191.738a12.185 12.185 0 0 1 9.738 19.49c-6.469 8.69-11.821 9.693-11.821 15.7z"  horiz-adv-x="1024" />

    
    <glyph glyph-name="guanlirenyuanyichangzaigang" unicode="&#59249;" d="M502.232 791.509c192.176 0 347.516-158.2 347.516-352.792 0-130.666-104.4-277.87-307.858-450.341a61.327 61.327 0 0 0-79.316 0C259.113 160.847 154.714 308.05 154.714 438.717 154.714 633.327 310.054 791.509 502.232 791.509zM496.479 449.095m-306.63 0a306.63 306.63 0 1 1 613.26 0 306.63 306.63 0 1 1-613.26 0ZM511.098 663.724c33.621-3.364 60.521-13.449 80.687-43.706 10.089-16.811 13.449-36.982 10.089-57.152v-6.725c0-3.363 0-3.363 3.36-6.723 10.085-0.002 10.085-3.364 10.085-13.452s-3.36-20.174-6.723-33.619c-3.363-6.725-6.723-13.449-16.812-13.449-3.36 0-3.36-3.363-6.723-6.725-6.723-36.982-30.257-60.516-57.154-77.325-13.449-6.725-26.9-3.363-40.345 3.36-23.534 13.449-36.983 33.623-47.068 60.517 0 3.363-3.363 10.088-3.363 13.448a7.23 7.23 0 0 1-6.723 6.725c-6.726 0-10.085 6.723-13.448 13.449 0 10.086-3.363 23.534-3.363 33.619s3.365 13.45 10.087 16.811c3.363 0 3.363 3.363 3.363 6.725 0 16.808 0 30.257 3.363 47.068 6.723 26.9 20.171 40.346 43.705 43.706h6.726c3.36 0 10.086 0 10.086 6.725s6.723 6.723 13.448 6.723zM554.804 287.176c3.36 6.726 3.36 13.449 6.723 20.175 6.723 20.171 13.449 43.7 20.171 63.876 0 3.363 3.362 6.726 6.725 3.363 16.809-6.723 36.982-13.448 53.791-20.172 13.449-6.725 26.9-16.811 36.983-33.62 3.362-6.725 3.362-16.809 3.362-23.534v-16.811c0-13.448-10.085-23.534-23.534-23.534H369.892c-10.086 0-20.171 3.363-23.534 13.448v3.363c0 13.445 0 26.895 3.363 40.342 6.723 20.175 20.171 33.62 36.982 40.345s36.98 13.449 53.792 23.535a7.23 7.23 0 0 0 6.722-6.726c10.088-26.895 16.811-53.792 26.9-80.689v-3.362a3.293 3.293 0 0 1 3.363 3.362l20.171 40.346c3.363 3.363 0 6.723 0 6.723-6.723 6.725-13.449 16.811-13.449 26.9a18.493 18.493 0 0 0 10.088 16.811q20.169 10.085 40.342 0c10.086-3.362 10.086-10.088 10.086-23.534 0-10.088-6.723-16.812-13.449-23.534-3.361-3.363-3.361-3.363 0-6.726 6.725-13.449 13.449-26.9 23.536-40.346z"  horiz-adv-x="1024" />

    
    <glyph glyph-name="huanweirenyuanzhengchangzaigang" unicode="&#59250;" d="M502.232 791.734c192.176 0 347.516-158.2 347.516-352.792 0-130.666-104.4-277.87-307.858-450.341a61.328 61.328 0 0 0-79.316 0C259.113 161.072 154.714 308.276 154.714 438.942 154.714 633.552 310.054 791.734 502.232 791.734zM502.867 436.544m-293.854 0a293.854 293.854 0 1 1 587.708 0 293.854 293.854 0 1 1-587.708 0ZM670.124 314.954v-11.936c0-24.709-64.754-45.871-64.754-45.871l-26.98 3.43s-43.147 5.4-70.151 5.4c-26.962 0-70.149-5.4-70.149-5.4l-26.783-3.35s-64.949 21.173-64.949 45.791V314.954c0 22.966 29.935 46.143 65.022 63.915 1.7 0.859 22.783-118.535 22.783-118.535l9.326 0.243s-18.018 123.272-16.189 124.111c9.712 4.441 16.1 8.605 25.656 12.05 3.544 1.292 20.486 10.492 11.007 35.269-21.95 22.377-36.9 60.355-36.9 109.24h162.869c0-48.378-15.336-86.558-37.141-108.964h0.125c-9.268-28.11 5.557-34.774 7.915-35.538 9.454-3.127 18.866-8.012 28.352-12.057 2.35-1-16.188-124.111-16.188-124.111l9.853 0.265s20.1 119 22.154 118c35.618-17.437 65.123-40.45 65.123-63.884zM601.082 576.435c0 56.18-76.5 84.265-76.5 84.265-10.834 4.88-21.59 3.77-32.672 0 0 0-76.507-24.661-76.507-84.265 0-5.989-7.3-7.089-13.72-15.721a12.177 12.177 0 0 1 9.744-19.465h191.738a12.185 12.185 0 0 1 9.738 19.49c-6.469 8.69-11.821 9.693-11.821 15.7z"  horiz-adv-x="1024" />

    
    <glyph glyph-name="guanlirenyuanbuzaigang" unicode="&#59251;" d="M502.232 794.011c192.176 0 347.516-158.2 347.516-352.792 0-130.666-104.4-277.87-307.858-450.341a61.327 61.327 0 0 0-79.316 0C259.113 163.349 154.714 310.552 154.714 441.219 154.714 635.829 310.054 794.011 502.232 794.011zM499.673 451.597m-306.63 0a306.63 306.63 0 1 1 613.26 0 306.63 306.63 0 1 1-613.26 0ZM511.098 666.226c33.621-3.364 60.521-13.449 80.687-43.706 10.089-16.811 13.449-36.982 10.089-57.152v-6.725c0-3.363 0-3.363 3.36-6.723 10.085-0.002 10.085-3.364 10.085-13.452s-3.36-20.174-6.723-33.619c-3.363-6.725-6.723-13.449-16.812-13.449-3.36 0-3.36-3.363-6.723-6.725-6.723-36.982-30.257-60.516-57.154-77.325-13.449-6.725-26.9-3.363-40.345 3.36-23.534 13.449-36.983 33.623-47.068 60.517 0 3.363-3.363 10.088-3.363 13.448a7.23 7.23 0 0 1-6.723 6.725c-6.726 0-10.085 6.723-13.448 13.449 0 10.086-3.363 23.534-3.363 33.619s3.365 13.45 10.087 16.811c3.363 0 3.363 3.363 3.363 6.725 0 16.808 0 30.257 3.363 47.068 6.723 26.9 20.171 40.346 43.705 43.706h6.726c3.36 0 10.086 0 10.086 6.725s6.723 6.723 13.448 6.723zM554.804 289.678c3.36 6.726 3.36 13.449 6.723 20.175 6.723 20.171 13.449 43.7 20.171 63.876 0 3.363 3.362 6.726 6.725 3.363 16.809-6.723 36.982-13.448 53.791-20.172 13.449-6.725 26.9-16.811 36.983-33.62 3.362-6.725 3.362-16.809 3.362-23.534v-16.811c0-13.448-10.085-23.534-23.534-23.534H369.892c-10.086 0-20.171 3.363-23.534 13.448v3.363c0 13.445 0 26.895 3.363 40.342 6.723 20.175 20.171 33.62 36.982 40.345s36.98 13.449 53.792 23.535a7.23 7.23 0 0 0 6.722-6.726c10.088-26.895 16.811-53.792 26.9-80.689v-3.362a3.293 3.293 0 0 1 3.363 3.362l20.171 40.346c3.363 3.363 0 6.723 0 6.723-6.723 6.725-13.449 16.811-13.449 26.9a18.493 18.493 0 0 0 10.088 16.811q20.169 10.085 40.342 0c10.086-3.362 10.086-10.088 10.086-23.534 0-10.088-6.723-16.812-13.449-23.534-3.361-3.363-3.361-3.363 0-6.726 6.725-13.449 13.449-26.9 23.536-40.346z"  horiz-adv-x="1024" />

    
    <glyph glyph-name="cheliangbaojing" unicode="&#59252;" d="M502.232 794.672c192.176 0 347.516-158.2 347.516-352.792 0-130.666-104.4-277.87-307.858-450.341a61.328 61.328 0 0 0-79.316 0C259.113 164.01 154.714 311.214 154.714 441.88c0 194.61 155.34 352.792 347.518 352.792zM502.628 145.738a308.859 308.859 0 0 0-61.8 6.229 305.019 305.019 0 0 0-57.558 17.867 306.643 306.643 0 0 0-52.086 28.271 309 309 0 0 0-45.38 37.442 308.883 308.883 0 0 0-37.442 45.381 306.715 306.715 0 0 0-28.271 52.087 305.019 305.019 0 0 0-17.867 57.558 308.876 308.876 0 0 0-6.229 61.8 308.859 308.859 0 0 0 6.229 61.8 305.019 305.019 0 0 0 17.867 57.558 306.643 306.643 0 0 0 28.271 52.086 308.9 308.9 0 0 0 37.442 45.38 308.956 308.956 0 0 0 45.38 37.442 306.669 306.669 0 0 0 52.086 28.271 305.019 305.019 0 0 0 57.558 17.867 308.859 308.859 0 0 0 61.8 6.229 308.861 308.861 0 0 0 61.8-6.229 305.029 305.029 0 0 0 57.559-17.867 306.715 306.715 0 0 0 52.087-28.271 308.934 308.934 0 0 0 45.381-37.442 309.015 309.015 0 0 0 37.442-45.38 306.643 306.643 0 0 0 28.271-52.086 305.019 305.019 0 0 0 17.867-57.558 308.859 308.859 0 0 0 6.229-61.8 308.883 308.883 0 0 0-6.229-61.8 305.019 305.019 0 0 0-17.867-57.558 306.652 306.652 0 0 0-28.271-52.087 309.044 309.044 0 0 0-37.442-45.381 309.044 309.044 0 0 0-45.381-37.442 306.715 306.715 0 0 0-52.087-28.271 305.029 305.029 0 0 0-57.559-17.867 308.869 308.869 0 0 0-61.8-6.229z m0.5 604.263c-164.389 0-298.129-133.741-298.129-298.132S338.739 153.74 503.128 153.74 801.26 287.48 801.26 451.869 667.52 750.001 503.129 750.001zM357.136 336.76a33.532 33.532 0 1 0 33.208 33.53 33.5 33.5 0 0 0-33.208-33.53z m0.023 55.975a22.447 22.447 0 1 1 22.17-22.441 22.456 22.456 0 0 1-22.17 22.442z m325.542-9.834c-1.535 0-3.195 0.018-4.986 0.037-2.122 0.022-4.389 0.047-6.845 0.047-0.112 0.346-11.186 32.748-40.889 32.748-40.2 0-43.067-32.307-43.078-32.633l-189.332-0.092a42.388 42.388 0 0 1-80.767 0h-36.662a10.463 10.463 0 0 0-10.441 10.509v62.07c0 5.807 2.744 14.343 6.117 19.019l45.006 62.644c3.4 4.667 10.824 8.463 16.558 8.463h33.438v-110.111l0.092-0.667c0.286-7.42 4.735-9.76 8.417-10.418h319.639v-31c0-9.656-4.709-10.616-16.267-10.616zM344.166 529.96c-4.872 0-11.495-3.869-14.764-8.624l-33.806-48.363a39.372 39.372 0 0 1-6-19.134v-1.7a10.574 10.574 0 0 1 10.505-10.557h42.34a10.593 10.593 0 0 1 10.487 10.556v67.335c0 5.783-3.927 10.487-8.762 10.487z m132.143-95.878h-0.026l-6.368 0.026v93.369h-7.614v-93.369h-6.347v93.369h-7.653v-93.369h-6.347v93.369h-7.612v-93.369h-38.685c-7.9 0-14.327 4.539-14.327 10.119V572.275c0 5.58 6.427 10.119 14.327 10.119h282.682c7.926 0 14.374-4.539 14.374-10.119v-128.049c0-5.58-6.448-10.119-14.374-10.119h-194.4v93.37h-7.635v-93.394zM627.255 340.12a34.511 34.511 0 1 0 34.494 34.5 34.549 34.549 0 0 0-34.494-34.5z m0 56.741a22.179 22.179 0 1 1 22.18-22.18 22.181 22.181 0 0 1-22.18 22.179z"  horiz-adv-x="1024" />

    
    <glyph glyph-name="cheliangyouxiaozuoye" unicode="&#59253;" d="M502.018 794.447c192.176 0 347.516-158.2 347.516-352.792 0-130.666-104.4-277.87-307.858-450.341a61.328 61.328 0 0 0-79.316 0C258.899 163.785 154.5 310.989 154.5 441.655c0 194.61 155.34 352.792 347.518 352.792zM357.137 336.535a33.532 33.532 0 1 0 33.208 33.53 33.5 33.5 0 0 0-33.208-33.53z m0.023 55.975a22.447 22.447 0 1 1 22.17-22.441 22.456 22.456 0 0 1-22.17 22.442z m325.542-9.834c-1.535 0-3.195 0.018-4.986 0.037-2.122 0.022-4.389 0.047-6.845 0.047-0.112 0.346-11.186 32.748-40.889 32.748-40.2 0-43.067-32.307-43.078-32.633l-189.332-0.092a42.388 42.388 0 0 1-80.767 0h-36.662a10.463 10.463 0 0 0-10.441 10.509v62.07c0 5.807 2.744 14.343 6.117 19.019l45.006 62.644c3.4 4.667 10.824 8.463 16.558 8.463h33.438v-110.111l0.092-0.667c0.286-7.42 4.735-9.76 8.417-10.418h319.639v-31c0-9.656-4.709-10.616-16.267-10.616zM344.167 529.735c-4.872 0-11.495-3.869-14.764-8.624l-33.806-48.363a39.372 39.372 0 0 1-6-19.134v-1.7a10.574 10.574 0 0 1 10.505-10.557h42.34a10.593 10.593 0 0 1 10.487 10.556v67.335c0 5.783-3.927 10.487-8.762 10.487z m132.143-95.878h-0.026l-6.368 0.026v93.369h-7.614v-93.369h-6.347v93.369h-7.653v-93.369h-6.347v93.369h-7.612v-93.369h-38.685c-7.9 0-14.327 4.539-14.327 10.119V572.05c0 5.58 6.427 10.119 14.327 10.119H678.34c7.926 0 14.374-4.539 14.374-10.119v-128.049c0-5.58-6.448-10.119-14.374-10.119h-194.4v93.37h-7.635v-93.394zM627.256 339.895a34.511 34.511 0 1 0 34.494 34.5 34.549 34.549 0 0 0-34.494-34.5z m0 56.741a22.179 22.179 0 1 1 22.18-22.18 22.181 22.181 0 0 1-22.18 22.179zM502.629 141.739a308.859 308.859 0 0 0-61.8 6.229 305.019 305.019 0 0 0-57.558 17.867 306.643 306.643 0 0 0-52.086 28.271 309 309 0 0 0-45.38 37.442 308.883 308.883 0 0 0-37.442 45.381 306.715 306.715 0 0 0-28.271 52.087 305.019 305.019 0 0 0-17.867 57.558 308.876 308.876 0 0 0-6.229 61.8 308.859 308.859 0 0 0 6.229 61.8 305.019 305.019 0 0 0 17.867 57.558 306.643 306.643 0 0 0 28.271 52.086 308.9 308.9 0 0 0 37.442 45.38 308.956 308.956 0 0 0 45.38 37.442 306.669 306.669 0 0 0 52.086 28.271 305.019 305.019 0 0 0 57.558 17.867 308.859 308.859 0 0 0 61.8 6.229 308.861 308.861 0 0 0 61.8-6.229 305.029 305.029 0 0 0 57.559-17.867 306.715 306.715 0 0 0 52.087-28.271 308.934 308.934 0 0 0 45.381-37.442 309.015 309.015 0 0 0 37.442-45.38 306.643 306.643 0 0 0 28.271-52.086 305.019 305.019 0 0 0 17.867-57.558 308.859 308.859 0 0 0 6.229-61.8 308.883 308.883 0 0 0-6.229-61.8 305.019 305.019 0 0 0-17.867-57.558 306.652 306.652 0 0 0-28.271-52.087 309.044 309.044 0 0 0-37.442-45.381 309.044 309.044 0 0 0-45.381-37.442 306.715 306.715 0 0 0-52.087-28.271 305.029 305.029 0 0 0-57.559-17.867 308.869 308.869 0 0 0-61.8-6.229z m0.5 604.263C338.74 746.002 205 612.261 205 447.87s133.74-298.129 298.129-298.129 298.132 133.74 298.132 298.129-133.74 298.132-298.131 298.132z"  horiz-adv-x="1024" />

    
    <glyph glyph-name="cheliangfeiyouxiaozuoye" unicode="&#59254;" d="M502.232 792.159c192.176 0 347.516-158.2 347.516-352.792 0-130.666-104.4-277.87-307.858-450.341a61.328 61.328 0 0 0-79.316 0c-203.461 172.466-307.86 319.675-307.86 450.341 0 194.61 155.34 352.792 347.518 352.792zM357.136 334.251a33.532 33.532 0 1 0 33.208 33.53 33.5 33.5 0 0 0-33.208-33.53z m0.023 55.975a22.447 22.447 0 1 1 22.17-22.441 22.456 22.456 0 0 1-22.17 22.442z m325.542-9.834c-1.535 0-3.195 0.018-4.986 0.037-2.122 0.022-4.389 0.047-6.845 0.047-0.112 0.346-11.186 32.748-40.889 32.748-40.2 0-43.067-32.307-43.078-32.633l-189.332-0.092a42.388 42.388 0 0 1-80.767 0h-36.662a10.463 10.463 0 0 0-10.441 10.509v62.07c0 5.807 2.744 14.343 6.117 19.019l45.006 62.644c3.4 4.667 10.824 8.463 16.558 8.463h33.438v-110.111l0.092-0.667c0.286-7.42 4.735-9.76 8.417-10.418h319.639v-31c0-9.656-4.709-10.616-16.267-10.616zM344.166 527.451c-4.872 0-11.495-3.869-14.764-8.624l-33.806-48.363a39.372 39.372 0 0 1-6-19.134v-1.7a10.574 10.574 0 0 1 10.505-10.557h42.34a10.593 10.593 0 0 1 10.487 10.556v67.335c0 5.783-3.927 10.487-8.762 10.487z m132.143-95.878h-0.026l-6.368 0.026v93.369h-7.614v-93.369h-6.347v93.369h-7.653v-93.369h-6.347v93.369h-7.612v-93.369h-38.685c-7.9 0-14.327 4.539-14.327 10.119V569.766c0 5.58 6.427 10.119 14.327 10.119h282.682c7.926 0 14.374-4.539 14.374-10.119v-128.049c0-5.58-6.448-10.119-14.374-10.119h-194.4v93.37h-7.635v-93.394zM627.255 337.611a34.511 34.511 0 1 0 34.494 34.5 34.549 34.549 0 0 0-34.494-34.5z m0 56.741a22.179 22.179 0 1 1 22.18-22.18 22.181 22.181 0 0 1-22.18 22.179zM505.629 142.738a308.859 308.859 0 0 0-61.8 6.229 305.019 305.019 0 0 0-57.558 17.867 306.643 306.643 0 0 0-52.086 28.271 309 309 0 0 0-45.38 37.442 308.883 308.883 0 0 0-37.442 45.381 306.715 306.715 0 0 0-28.271 52.087 305.019 305.019 0 0 0-17.867 57.558 308.876 308.876 0 0 0-6.229 61.8 308.859 308.859 0 0 0 6.229 61.8 305.019 305.019 0 0 0 17.867 57.558 306.643 306.643 0 0 0 28.271 52.086 308.9 308.9 0 0 0 37.442 45.38 308.956 308.956 0 0 0 45.38 37.442 306.669 306.669 0 0 0 52.086 28.271 305.019 305.019 0 0 0 57.558 17.867 308.859 308.859 0 0 0 61.8 6.229 308.861 308.861 0 0 0 61.8-6.229 305.029 305.029 0 0 0 57.559-17.867 306.715 306.715 0 0 0 52.087-28.271 308.934 308.934 0 0 0 45.381-37.442 309.015 309.015 0 0 0 37.442-45.38 306.643 306.643 0 0 0 28.271-52.086 305.019 305.019 0 0 0 17.867-57.558 308.859 308.859 0 0 0 6.229-61.8 308.883 308.883 0 0 0-6.229-61.8 305.019 305.019 0 0 0-17.867-57.558 306.652 306.652 0 0 0-28.271-52.087 309.044 309.044 0 0 0-37.442-45.381 309.044 309.044 0 0 0-45.381-37.442 306.715 306.715 0 0 0-52.087-28.271 305.029 305.029 0 0 0-57.559-17.867 308.869 308.869 0 0 0-61.8-6.229z m0.5 604.263C341.74 747.001 208 613.26 208 448.869S341.74 150.74 506.129 150.74s298.132 133.74 298.132 298.129-133.74 298.132-298.131 298.132z"  horiz-adv-x="1024" />

    
    </font>
</defs>
</svg>
